<svg width="420" height="379" viewBox="0 0 420 379" fill="none" xmlns="http://www.w3.org/2000/svg">
<path d="M30.328 224.387C49.998 227.823 63.805 206.641 46.058 193.169C33.713 183.798 7.92699 188.593 10.559 207.616C11.799 216.57 22.038 222.939 30.328 224.387Z" fill="#96D6E0"/>
<path d="M55.561 75.7168C54.521 54.7438 63.852 28.9448 87.963 28.1148C131.671 26.6118 155.621 78.3788 194.941 87.9658C221.928 94.5458 238.628 75.4928 258.527 61.4458C280.019 46.2748 302.932 25.6408 331.726 32.1138C350.322 36.2948 360.855 55.2398 362.456 72.6918C364.171 91.3898 355.175 106.418 356.716 124.364C358.35 143.396 378.477 151.601 388.424 167.3C400.711 186.695 404.867 209.081 398.907 231.318C393.159 252.765 376.943 273.978 356.024 282.331C327.682 293.651 306.559 276.599 280.216 268.966C242.599 258.067 224.715 278.104 198.487 300.653C182.261 314.603 161.736 326.951 139.19 323.545C107.576 318.769 97.752 275.895 97.493 249.384C97.328 232.484 104.921 212.896 92.464 199.921C80.546 187.51 68.906 189.213 52.701 188.217C39.813 187.425 24.657 182.564 20.325 169.182C18.31 162.959 18.494 154.8 22.445 149.359C32.267 135.842 55.332 135.537 58.712 118.698C61.562 104.496 56.26 89.8438 55.561 75.7168Z" fill="#96D6E0"/>
<path d="M178.357 31.3308C184.393 6.81782 128.875 -13.2152 127.203 10.8628C126.312 23.7068 145.205 39.4198 156.648 41.5478C167.183 43.5058 175.694 42.1468 178.357 31.3308Z" fill="#96D6E0"/>
<path d="M136.562 282.672C132.241 272.694 130.386 261.961 124.5 252.784C122.25 249.274 119.983 246.128 116.548 243.482C112.323 240.228 107.648 240.755 102.998 238.8C94.465 235.214 89.692 225.442 81.554 220.611C73.493 215.826 63.777 214.273 54.528 216.183C45.992 217.944 40.131 218.954 31.905 215.394C25.618 212.672 12.495 208.2 16.942 220.156C19.562 227.202 28.279 230.607 32.539 237.111C37.103 244.08 38.244 254.289 44.416 260.192C47.392 263.038 50.904 262.834 54.464 262.63C57.903 262.433 61.387 262.236 64.477 264.788C70.994 270.176 72.978 277.558 81.078 281.986C89.824 286.767 100.165 288.249 109.941 288.809C116.887 289.205 130.273 289.923 138.178 286.859C137.687 285.459 137.166 284.063 136.562 282.672Z" fill="#009361"/>
<path d="M63.135 241.176C84.183 263.511 109.262 278.813 137.074 283.93C136.906 283.51 136.744 283.09 136.562 282.672C132.241 272.694 130.386 261.961 124.5 252.784C122.25 249.274 119.983 246.128 116.548 243.482C112.323 240.228 107.648 240.755 102.998 238.8C94.465 235.214 89.692 225.442 81.554 220.611C73.493 215.826 63.777 214.273 54.528 216.183C51.022 216.906 47.969 217.496 45.016 217.702C50.783 226.176 56.654 234.298 63.135 241.176Z" fill="#247A54"/>
<path d="M353.82 101.159C347.026 99.7848 360.682 88.3368 362.635 86.4328C367.656 81.5398 377.213 73.1508 376.048 65.1228C375.286 59.8728 371.318 60.6348 367.353 61.3968C365.321 61.7878 363.289 62.1788 361.691 61.7588C362.609 56.1848 370.369 50.7758 373.806 46.6188C376.442 43.4298 379.056 39.9898 379.922 35.7838C381.74 26.9628 375.977 25.3088 369.328 29.2458C368.355 27.8358 368.675 25.7868 368.848 24.0268C369.304 19.4288 373.01 3.64582 365.194 2.38282C361.068 1.71582 357.599 10.2568 356.304 13.0478C354.853 16.1668 352.957 24.4488 350.1 26.3748C348.35 27.5548 347.572 26.3768 346.616 25.1978C345.88 24.2908 345.039 23.3828 343.565 23.5538C339.901 23.9768 339.021 31.5308 338.545 34.3898C337.697 39.4758 338.313 44.7168 338.862 49.7728C339.172 52.6378 340.402 56.4458 338.702 59.0378C336.808 57.5648 334.883 55.1638 332.791 53.8548C327.687 50.6588 326.641 56.2368 325.608 60.6018C323.863 67.9738 325.053 75.9778 325.083 83.5088C325.094 86.2348 326.214 93.1608 324.311 94.9908C319.863 91.6248 312.82 84.6778 310.532 94.3538C309.031 100.698 309.598 108.238 310.885 114.55C311.729 118.691 315.324 133.138 319.038 143.307C319.674 142.861 320.302 142.415 320.917 141.968C326.298 138.063 332.147 135.147 337.674 131.411C345.298 126.257 353.775 119.385 358.475 111.416C359.658 109.411 362.961 102.99 361.599 100.771C360.455 98.9118 358.545 99.6548 356.766 100.398C355.662 100.858 354.609 101.319 353.82 101.159Z" fill="#009361"/>
<path d="M361.599 100.771C360.455 98.9118 358.545 99.6548 356.766 100.398C355.662 100.858 354.609 101.319 353.82 101.159C353.526 101.1 353.283 101.015 353.063 100.919C341.619 110.151 330.927 120.336 322.489 132.339C320.817 134.719 319.233 137.131 317.742 139.579C318.17 140.864 318.603 142.116 319.038 143.307C319.674 142.861 320.302 142.415 320.917 141.968C326.298 138.063 332.147 135.147 337.674 131.411C345.298 126.257 353.775 119.385 358.475 111.416C359.658 109.411 362.961 102.99 361.599 100.771Z" fill="#247A54"/>
<path d="M121.08 181.391C124.185 170.218 128.112 158.646 129.956 147.291C131.457 138.046 127.797 128.151 123.212 120.323C119.438 113.885 111.496 109.531 107.928 103.001C103.363 94.6428 105.939 83.1868 103.17 74.0758C100.15 64.1488 94.207 57.5698 86.286 51.2858C79.317 45.7568 74.164 43.7678 69.889 35.6968C66.019 28.3938 61.871 19.5088 53.604 16.1828C34.406 8.46082 48.615 48.2118 49.356 55.5488C50.205 63.9478 46.822 69.1728 43.078 76.2108C37.575 86.5518 37.509 96.4788 45.56 105.949C52.589 114.215 59.696 116.533 57.953 128.629C56.693 137.374 55.341 147.041 57.992 155.817C61.069 166.004 66.841 175.545 75.915 180.808C79.85 183.091 84.242 185.203 88.471 187.023C91.949 188.521 105.602 190.785 116.598 192.414C118.366 188.993 119.908 185.609 121.08 181.391Z" fill="#06AD67"/>
<path d="M88.471 187.023C91.949 188.521 105.602 190.785 116.598 192.414C117.971 189.758 119.205 187.119 120.237 184.1C113.021 170.596 102.918 158.125 88.554 146.789C78.909 139.178 68.855 132.686 58.069 127.695C58.035 128.001 57.999 128.309 57.953 128.629C56.693 137.374 55.341 147.041 57.992 155.817C61.069 166.004 66.841 175.545 75.915 180.808C79.85 183.091 84.242 185.203 88.471 187.023Z" fill="#009361"/>
<path d="M387.117 147.4C392.789 127.77 395.38 105.805 393.876 85.3788C393.264 77.0598 393.6 68.7788 394.734 60.5428C391.988 63.2998 388.86 65.8708 387.221 67.6328C381.58 73.6958 375.508 79.4848 369.971 85.7578C354.885 102.843 339.818 121.109 331.18 142.476C325.511 156.499 322.303 170.833 323.033 185.758C323.377 192.753 324.611 199.491 326.495 206.22C327.111 208.421 327.858 211.498 328.808 214.627C358.035 201.655 378.26 178.054 387.117 147.4Z" fill="#06AD67"/>
<path d="M333.893 136.336C332.937 138.358 332.02 140.398 331.18 142.476C325.511 156.499 322.303 170.833 323.033 185.758C323.377 192.753 324.611 199.491 326.495 206.22C327.111 208.421 327.858 211.498 328.808 214.627C337.709 210.677 345.768 205.736 352.933 199.915C352.13 176.674 345.279 154.971 333.893 136.336Z" fill="#009361"/>
<path d="M383.725 157.383C365.242 161.641 349.179 170.138 334.149 181.303C330.236 184.21 326.67 187.204 323.388 190.275C323.95 195.674 325.019 200.95 326.495 206.22C327.111 208.421 327.858 211.498 328.808 214.627C354.775 203.102 373.628 183.181 383.725 157.383Z" fill="#009361"/>
<path d="M81.691 155.074C65.336 142.165 47.821 132.44 27.508 127.886C21.589 126.559 10.08 126.81 0 125.107C20.275 146.896 29.771 181.428 46.588 205.112C68.01 235.282 96.639 256.15 131 261.893C127.277 220.019 118.206 183.888 81.691 155.074Z" fill="#3CB77B"/>
<path d="M334.149 190.372C349.739 178.791 366.432 170.066 385.794 165.98C391.436 164.79 402.405 165.015 412.013 163.487C392.687 183.035 383.637 214.016 367.608 235.264C347.189 262.33 319.902 281.052 287.151 286.204C290.699 248.637 299.346 216.222 334.149 190.372Z" fill="#3CB77B"/>
<path d="M287.151 286.204C306.234 283.202 323.458 275.586 338.554 264.403C347.799 246.455 353.021 226.095 353.021 204.515C353.021 195.978 352.195 187.634 350.636 179.552C344.97 182.779 339.492 186.403 334.149 190.372C299.346 216.222 290.699 248.637 287.151 286.204Z" fill="#06AD67"/>
<path d="M151.337 266.238C143.239 262.36 134.797 255.557 129.151 250.778C109.02 233.738 92.905 212.531 77.32 192.023C75.396 189.49 73.473 186.958 71.54 184.433C63.298 173.659 56.34 165.756 48.977 158.807C48.214 158.087 47.418 157.326 46.594 156.539C40.128 150.365 32.08 142.68 24.485 139.377L24.856 138.522C32.603 141.892 40.718 149.639 47.237 155.865C48.06 156.651 48.855 157.41 49.617 158.129C57.017 165.113 64.007 173.051 72.28 183.866C74.213 186.393 76.138 188.925 78.062 191.459C93.617 211.927 109.701 233.093 129.754 250.066C135.359 254.813 143.739 261.566 151.74 265.397L151.337 266.238Z" fill="#06AD67"/>
<path d="M114.607 183.692C113.523 174.676 111.564 167.241 108.443 160.294C103.009 148.196 96.848 138.742 89.051 130.541C82.243 123.379 76.607 116.558 76.596 105.59C76.593 103.163 76.651 100.718 76.707 98.3538C76.887 90.8148 77.055 83.6928 75.467 76.3968C72.688 63.6368 66.154 53.2118 59.237 42.1738L59.599 41.8718L59.993 41.6248L59.599 41.8718L60.027 41.6788C66.989 52.7878 73.564 63.2788 76.378 76.1978C77.99 83.6038 77.811 91.1128 77.64 98.3758C77.583 100.735 77.525 103.174 77.527 105.59C77.539 116.214 83.059 122.884 89.726 129.899C97.598 138.178 103.815 147.715 109.294 159.912C112.455 166.947 114.437 174.468 115.533 183.581L114.607 183.692Z" fill="#009361"/>
<path d="M314.304 172.431L313.391 172.241C314.207 168.311 314.643 164.39 315.065 160.599C315.653 155.304 316.262 149.829 317.923 144.462C318.809 141.597 319.625 139 320.627 136.223C321.782 133.023 322.867 129.701 323.918 126.488C325.533 121.545 327.205 116.433 329.223 111.44C331.056 106.91 333.34 102.297 335.549 97.8348C337.888 93.1088 340.307 88.2228 342.19 83.4308C343.913 79.0498 345.229 74.4628 346.502 70.0268C348.182 64.1728 349.919 58.1198 352.615 52.4328C355.732 45.8598 357.134 39.5468 358.618 32.8628C359.236 30.0768 359.876 27.1968 360.652 24.2888L361.553 24.5288C360.782 27.4178 360.144 30.2888 359.528 33.0648C358.032 39.8008 356.619 46.1638 353.457 52.8328C350.794 58.4498 349.067 64.4668 347.398 70.2838C346.119 74.7408 344.797 79.3498 343.057 83.7728C341.159 88.6008 338.731 93.5048 336.384 98.2478C334.182 102.694 331.906 107.292 330.088 111.79C328.081 116.753 326.415 121.85 324.804 126.778C323.752 129.997 322.664 133.326 321.503 136.54C320.508 139.298 319.696 141.884 318.813 144.738C317.179 150.02 316.602 155.209 315.991 160.702C315.567 164.515 315.129 168.458 314.304 172.431Z" fill="#247A54"/>
<path d="M314.997 226.842L314.402 226.125C317.237 223.778 318.897 220.343 320.504 217.02C321.645 214.658 322.826 212.215 324.429 210.136C325.255 209.064 326.057 208.113 326.834 207.194C328.582 205.126 330.233 203.172 331.701 200.309C334.882 194.105 336.768 187.586 338.333 181.464C338.855 179.421 339.361 177.346 339.87 175.26C341.837 167.194 343.871 158.853 347.058 151.576L348.367 148.574C352.75 138.501 357.282 128.084 364.056 119.451C371.156 110.401 375.108 103.231 379.536 93.9038L380.378 94.3038C375.923 103.69 371.943 110.908 364.789 120.027C358.089 128.565 353.582 138.926 349.223 148.946L347.913 151.95C344.758 159.153 342.733 167.453 340.775 175.481C340.266 177.57 339.76 179.649 339.236 181.696C337.658 187.869 335.753 194.448 332.531 200.734C331.015 203.692 329.33 205.686 327.546 207.797C326.776 208.707 325.981 209.649 325.167 210.705C323.624 212.708 322.464 215.107 321.343 217.426C319.694 220.838 317.988 224.367 314.997 226.842Z" fill="#009361"/>
<path d="M272.682 305.191L272.195 304.395C273.956 303.317 274.769 302.005 275.711 300.487C276.151 299.774 276.608 299.038 277.193 298.278C282.097 291.915 286.834 285.414 291.415 279.127C298.315 269.655 305.452 259.862 313.236 250.44C317.462 245.324 322.617 241.191 327.603 237.193C332.527 233.244 337.62 229.161 341.685 224.199L343.875 221.526C353.22 210.11 362.046 199.326 372.164 188.87L372.834 189.518C362.743 199.947 353.929 210.715 344.597 222.116L342.406 224.791C338.279 229.827 333.148 233.941 328.187 237.919C323.237 241.888 318.12 245.991 313.955 251.033C306.189 260.434 299.061 270.216 292.168 279.676C287.583 285.968 282.843 292.474 277.932 298.848C277.375 299.569 276.932 300.285 276.503 300.977C275.54 302.53 274.632 303.997 272.682 305.191Z" fill="#06AD67"/>
<path d="M162.11 296.428C160.772 295.15 159.497 293.912 158.267 292.719C148.238 282.987 140.993 275.956 126.127 273.1C124.363 272.76 122.485 272.479 120.669 272.206C116.659 271.605 112.513 270.983 108.826 269.666C103.933 267.918 100.294 264.421 96.774 261.038C93.48 257.871 90.369 254.881 86.287 253.152C83.261 251.872 80.559 251.147 77.947 250.445C72.37 248.945 67.555 247.651 62.176 241.584C61.134 240.409 60.03 238.951 58.861 237.409C53.95 230.925 47.841 222.855 39.554 226.291L39.197 225.43C48.147 221.717 54.5 230.107 59.605 236.846C60.763 238.374 61.855 239.817 62.873 240.965C68.066 246.823 72.757 248.085 78.188 249.544C80.831 250.254 83.564 250.988 86.65 252.294C90.89 254.09 94.211 257.28 97.421 260.366C100.869 263.681 104.434 267.108 109.139 268.789C112.741 270.075 116.842 270.69 120.807 271.284C122.633 271.559 124.52 271.842 126.303 272.184C141.442 275.094 148.771 282.206 158.916 292.05C160.145 293.242 161.418 294.478 162.754 295.754L162.11 296.428Z" fill="#247A54"/>
<path d="M341.434 182.298C341.434 254.631 282.797 313.265 210.466 313.265C138.135 313.265 79.498 254.631 79.498 182.298C79.498 109.966 138.135 51.3308 210.466 51.3308C282.797 51.3308 341.434 109.966 341.434 182.298Z" fill="#367BB5"/>
<path d="M204.7 70.5508C203.666 72.7228 200.608 71.9768 199.75 73.7118C198.351 76.5638 199.899 79.2308 200.412 81.9428C201.559 88.0688 203.302 90.5108 197.084 94.1558C191.183 97.6138 189.476 95.1908 189.757 103.469C189.849 106.34 192.497 106.471 190.81 109.594C190.278 110.572 186.13 111.02 185.002 112.614C181.674 117.35 186.802 123.55 185.515 128.733C183.986 134.867 179.558 133.888 175.521 137.048C167.746 143.127 170.077 158.099 160.931 162.527C157.314 164.279 148.514 162.284 145.987 159.432C142.119 155.069 144.915 149.979 146.836 145.691C149.372 140.013 149.949 138.839 146.985 133.329C145.903 131.324 144.216 130.709 143.424 128.052C142.585 125.228 144.188 122.011 142.93 119.215C141.923 116.996 139.033 116.828 138.166 115.019C136.889 112.381 137.858 109.501 136.656 107.011C136.087 105.837 134.194 102.379 132.619 102.08C128.07 101.232 130.792 104.662 129.207 107.011C125.3 112.797 121.319 111.41 116.738 110.022C113.547 109.056 110.066 108.089 106.115 109.548C103.775 110.414 101.473 111.897 99.17 113.23C119.399 80.6938 153.501 57.6858 193.196 52.4558C198.193 58.0678 209.129 61.2478 204.7 70.5508Z" fill="#34BDBC"/>
<path d="M237.258 213.545C234.069 205.171 229.888 205.705 225.199 206.24C221.784 206.63 218.1 207.019 214.333 203.966C211.784 201.901 212.121 197.94 208.424 196.746C206.244 196.041 203.678 196.762 201.034 197.482C198.851 198.077 196.616 198.672 194.504 198.465C182.684 197.307 177.454 203.014 174.146 215.07C172.457 221.23 171.641 224.049 176.712 228.322C178.709 230.006 181.921 230.469 183.661 232.378C185.736 234.651 185.253 237.853 186.892 240.041C189.515 243.551 194.75 244.078 197.913 247.987C199.321 249.726 199.221 252.603 200.955 254.445C202.809 256.415 205.873 256.143 208.094 258.331C213.867 264.023 214.835 272.151 214.547 279.387C214.156 289.193 220.517 292.357 230.185 291.485C232.351 283.857 235.665 287.559 241.197 284.815C245.814 282.525 248.342 275.897 249.304 271.242C250.501 265.454 249.759 264.694 254.056 259.557C257.434 255.513 260.481 251.53 260.842 246.135C261.4 237.743 258.082 238.938 253.379 235.309C250.124 232.801 247.633 229 244.553 226.454C241.947 224.299 241.345 224.954 239.654 221.705C238.453 219.399 238.239 216.121 237.258 213.545Z" fill="#34BDBC"/>
<path d="M341.433 182.3C341.433 201.355 337.359 219.459 330.051 235.791C328.27 235.774 326.676 235.745 325.529 235.791C319.974 236.006 314.333 233.871 311.238 229.042C309.588 226.478 310.874 223.412 307.845 220.997C305.831 219.403 302.773 220.27 300.424 219.505C292.295 216.839 296.183 213.996 294.989 207.964C293.973 202.864 287.13 199.994 282.096 201.709C277.49 203.284 276.465 209.642 271.235 209.362C265.147 209.036 264.346 201.933 263.097 197.794C260.934 190.634 261.642 189.692 254.781 192.191C254.035 192.462 249.103 194.764 248.861 195.063C247.127 197.207 248.945 200.451 247.5 202.558C244.293 207.237 238.858 200.526 237.46 196.395C236.593 193.86 237.451 190.858 236.64 188.276C235.94 186.029 233.358 185.143 232.696 182.859C230.188 174.255 236.752 175.998 240.527 171.85C246.95 164.792 238.01 164.969 233.218 167.757C230.636 169.267 230.086 171.272 227.121 171.999C225.766 172.33 224.3 172.018 222.807 171.706C221.528 171.438 220.229 171.171 218.964 171.309C216.261 171.598 215.272 173.463 212.195 173.359C208.178 173.229 209.203 171.616 206.276 170.479C202.621 169.058 200.1 169.61 197.451 170.161C195.426 170.583 193.326 171.005 190.587 170.544C189.225 165.016 195.341 161.026 199.452 159.274C202.183 158.108 204.868 158.276 207.273 156.896C209.837 155.424 210.164 152.906 213.556 151.797C219.039 149.997 224.791 149.652 229.844 146.893C233.814 144.721 237.451 138.26 229.284 137.272C230.308 130.635 224.992 132.069 220.481 133.503C218.504 134.131 216.682 134.76 215.617 134.709C205.073 134.196 213.398 126.617 218.274 123.652C220.987 121.992 223.961 120.604 226.6 119.224C230.002 117.434 230.933 116.25 233.74 114.153C243.025 107.226 239.297 116.81 247.379 117.127C246.241 127.148 252.796 123.987 257.689 119.746C258.911 118.683 259.61 115.803 261.195 115.131C262.135 114.735 262.882 115.168 263.471 115.602C263.934 115.943 264.301 116.283 264.588 116.222C267.273 115.635 270.405 115.122 273.183 114.898C272.755 111.635 270.135 105.911 272.056 102.9C272.866 101.614 276.67 102.08 278.022 100.756C280.549 98.2858 280.11 97.7168 280.734 94.6398C281.853 89.2048 279.858 87.9558 284.109 83.9478C285.629 82.5118 288.407 80.5918 291.129 79.1188C321.754 103.087 341.433 140.395 341.433 182.3Z" fill="#34BDBC"/>
<path d="M161.947 262.268C162.406 269.366 159.881 269.258 156.177 269.15C154.243 269.093 151.988 269.036 149.67 270.006C149.801 272.83 149.53 275.926 148.757 278.591C141.466 282.189 142.287 288.194 143.042 294.598C134.194 289.276 126.028 282.936 118.7 275.729C118.579 274.452 118.449 273.165 118.281 271.889C118.141 270.816 120.145 270.509 119.586 268.662C119.399 268.058 117.274 267.051 116.809 265.949C115.568 262.994 114.459 262.594 114.244 259.014C113.928 253.569 118.402 249.076 119.046 244.098C119.381 241.45 117.488 239.401 117.656 236.631C117.806 234.235 119.232 232.454 119.586 229.965C115.307 228.408 111.951 227.514 108.968 224.521C105.649 227.607 98.023 223.048 94.546 222.377C89.278 221.38 84.86 220.736 83.611 213.67C83.48 213.595 83.35 213.53 83.228 213.474V213.465C80.796 203.471 79.5 193.04 79.5 182.3C79.5 168.391 81.662 154.994 85.681 142.418C91.32 143.127 89.577 142.26 92.505 138.876C94.537 136.527 105.798 122.114 107.588 133.366C112.146 133.152 121.087 133.879 119.026 140.945C117.759 145.262 109.601 144.851 106.609 149.783C103.216 155.377 106.059 157.334 110.189 161.306C116.295 167.179 116.239 167.281 118.858 160.103C119.95 157.111 116.809 156.616 121.05 155.199C123.894 154.248 125.785 155.638 127.669 157.372C130.269 159.777 129.207 162.303 132.619 164.522C134.856 165.986 137.569 165.305 140.05 166.023C144.16 167.216 153.949 173.061 150.089 178.813C148.341 181.412 144.877 180.553 141.662 179.693C138.961 178.972 136.435 178.25 135.248 179.578C135.071 179.633 134.893 179.68 134.725 179.727C135.108 185.339 142.613 185.61 141.978 191.063C140.683 191.129 139.189 191.044 137.638 190.96C133.47 190.733 128.887 190.506 126.625 193.189C124.015 196.284 126.429 206.79 124.304 208.673C120.892 211.693 113.825 207.665 110.692 206.258C108.418 205.233 106.935 203.294 104.083 203.368C103.56 203.378 97.847 206.407 97.771 206.575C95.934 211.152 102.89 216.569 106.945 217.463C108.865 217.885 110.566 217.381 112.309 216.877C114.656 216.2 117.081 215.522 120.221 217.1C125.282 219.645 124.499 223.962 131.229 225.099C132.617 225.331 134.612 225.255 136.742 225.179C140.595 225.041 144.891 224.904 146.836 226.591C149.903 229.247 147.814 232.379 150.061 235.456C151.823 237.861 155.375 237.937 157.733 238.636C163.505 240.332 168.939 241.758 169.107 249.413C159.132 251.063 161.435 254.241 161.947 262.268Z" fill="#34BDBC"/>
<path d="M210.466 313.265C210.435 313.265 210.4 313.265 210.369 313.265C210.4 313.265 210.435 313.265 210.466 313.265C236.808 313.265 261.339 305.485 281.878 292.102C261.339 305.485 236.808 313.265 210.466 313.265ZM210.341 313.265C210.318 313.265 210.296 313.265 210.272 313.265C210.299 313.265 210.315 313.265 210.341 313.265ZM210.24 313.265C210.213 313.265 210.186 313.265 210.159 313.264C210.186 313.265 210.214 313.265 210.24 313.265ZM210.145 313.264C210.111 313.264 210.083 313.264 210.049 313.264C210.08 313.264 210.115 313.264 210.145 313.264ZM210.024 313.264C210 313.264 209.976 313.264 209.952 313.264C209.978 313.264 209.997 313.264 210.024 313.264ZM209.921 313.264C209.897 313.264 209.871 313.264 209.847 313.263C209.874 313.264 209.894 313.264 209.921 313.264ZM209.824 313.263C209.794 313.263 209.758 313.263 209.728 313.263C209.763 313.263 209.789 313.263 209.824 313.263ZM209.709 313.263C209.682 313.263 209.661 313.262 209.634 313.262C209.661 313.262 209.682 313.263 209.709 313.263ZM209.598 313.262C209.574 313.262 209.558 313.262 209.534 313.262C209.552 313.262 209.58 313.262 209.598 313.262ZM209.502 313.261C209.472 313.261 209.443 313.261 209.412 313.261C209.443 313.261 209.471 313.261 209.502 313.261ZM209.399 313.261C209.372 313.26 209.34 313.26 209.313 313.26C209.34 313.26 209.372 313.26 209.399 313.261ZM209.28 313.26C209.259 313.259 209.236 313.259 209.215 313.259C209.237 313.259 209.258 313.259 209.28 313.26ZM209.182 313.259C209.155 313.258 209.135 313.258 209.108 313.258C209.134 313.258 209.156 313.258 209.182 313.259ZM209.086 313.258C209.055 313.257 209.024 313.257 208.993 313.257C209.024 313.257 209.055 313.257 209.086 313.258ZM208.959 313.256C208.939 313.256 208.918 313.256 208.898 313.256C208.92 313.256 208.937 313.256 208.959 313.256ZM208.86 313.255C208.84 313.255 208.819 313.255 208.799 313.254C208.821 313.255 208.838 313.255 208.86 313.255ZM208.764 313.254C208.733 313.254 208.704 313.253 208.673 313.253C208.704 313.253 208.733 313.254 208.764 313.254ZM208.643 313.252C208.62 313.252 208.601 313.252 208.578 313.251C208.6 313.252 208.621 313.252 208.643 313.252ZM208.542 313.251C208.518 313.251 208.501 313.25 208.477 313.25C208.495 313.25 208.524 313.251 208.542 313.251ZM208.445 313.25C208.418 313.249 208.391 313.249 208.364 313.248C208.39 313.249 208.419 313.249 208.445 313.25ZM208.333 313.248C208.309 313.247 208.281 313.247 208.258 313.247C208.284 313.247 208.306 313.247 208.333 313.248ZM208.223 313.246C208.202 313.246 208.181 313.245 208.161 313.245C208.178 313.245 208.205 313.246 208.223 313.246ZM208.124 313.244C208.101 313.244 208.08 313.244 208.056 313.243C208.078 313.243 208.102 313.244 208.124 313.244ZM208.029 313.243C207.999 313.242 207.969 313.242 207.939 313.241C207.97 313.242 207.998 313.242 208.029 313.243ZM207.903 313.24C207.883 313.24 207.862 313.239 207.842 313.239C207.864 313.239 207.881 313.24 207.903 313.24ZM207.804 313.238C207.784 313.238 207.765 313.238 207.744 313.237C207.766 313.238 207.783 313.238 207.804 313.238ZM207.708 313.236C207.678 313.236 207.65 313.235 207.619 313.235C207.646 313.235 207.682 313.236 207.708 313.236ZM207.584 313.234C207.564 313.233 207.546 313.233 207.525 313.232C207.547 313.233 207.562 313.233 207.584 313.234ZM207.482 313.232C207.465 313.231 207.445 313.231 207.428 313.23C207.446 313.231 207.465 313.231 207.482 313.232ZM207.389 313.229C207.365 313.229 207.34 313.228 207.316 313.228C207.338 313.228 207.367 313.229 207.389 313.229ZM207.269 313.227C207.249 313.226 207.226 313.226 207.206 313.225C207.228 313.226 207.247 313.226 207.269 313.227ZM207.161 313.224C207.145 313.224 207.131 313.223 207.115 313.223C207.132 313.223 207.144 313.224 207.161 313.224ZM207.065 313.222C207.051 313.221 207.033 313.221 207.02 313.22C207.033 313.221 207.051 313.221 207.065 313.222ZM206.945 313.218C206.928 313.218 206.906 313.217 206.889 313.217C206.906 313.217 206.928 313.218 206.945 313.218ZM206.839 313.216C206.823 313.215 206.812 313.215 206.795 313.214C206.808 313.215 206.826 313.215 206.839 313.216ZM206.746 313.213C206.732 313.213 206.715 313.212 206.702 313.212C206.715 313.212 206.733 313.213 206.746 313.213ZM206.651 313.21C206.624 313.21 206.598 313.209 206.571 313.208C206.597 313.209 206.625 313.21 206.651 313.21ZM206.519 313.206C206.505 313.206 206.491 313.206 206.477 313.205C206.491 313.206 206.506 313.206 206.519 313.206ZM206.424 313.204C206.411 313.203 206.398 313.203 206.384 313.202C206.398 313.203 206.411 313.203 206.424 313.204ZM206.331 313.201C206.321 313.2 206.306 313.2 206.296 313.2C206.309 313.2 206.318 313.2 206.331 313.201ZM206.195 313.196C206.181 313.196 206.172 313.196 206.158 313.195C206.167 313.196 206.186 313.196 206.195 313.196ZM206.104 313.194C206.09 313.193 206.08 313.193 206.067 313.192C206.075 313.193 206.095 313.193 206.104 313.194ZM206.01 313.19C205.997 313.19 205.991 313.19 205.977 313.189C205.986 313.19 206.001 313.19 206.01 313.19ZM205.852 313.185C205.848 313.185 205.844 313.185 205.841 313.185C205.845 313.185 205.847 313.185 205.852 313.185ZM205.78 313.183C205.77 313.182 205.759 313.182 205.749 313.181C205.762 313.182 205.767 313.182 205.78 313.183ZM205.689 313.179C205.679 313.179 205.672 313.179 205.661 313.178C205.67 313.179 205.68 313.179 205.689 313.179ZM205.454 313.171C205.444 313.17 205.442 313.17 205.432 313.17C205.441 313.17 205.445 313.17 205.454 313.171ZM205.368 313.167C205.357 313.167 205.351 313.167 205.341 313.166C205.35 313.167 205.359 313.167 205.368 313.167ZM205.279 313.164C205.275 313.164 205.266 313.163 205.262 313.163C205.271 313.164 205.27 313.164 205.279 313.164ZM205.125 313.158C205.122 313.158 205.116 313.158 205.113 313.157C205.117 313.158 205.121 313.158 205.125 313.158ZM205.045 313.155C205.038 313.154 205.032 313.154 205.025 313.154C205.034 313.154 205.036 313.154 205.045 313.155ZM204.956 313.151C204.952 313.151 204.95 313.151 204.946 313.151C204.951 313.151 204.951 313.151 204.956 313.151ZM204.719 313.141C204.715 313.141 204.711 313.141 204.708 313.14C204.712 313.141 204.714 313.141 204.719 313.141ZM204.635 313.137C204.631 313.137 204.628 313.137 204.625 313.137H204.635ZM204.31 313.123H204.307C204.312 313.123 204.306 313.123 204.31 313.123Z" fill="#0FBFDD"/>
<path d="M341.434 182.298C341.434 182.263 341.434 182.229 341.434 182.193C341.434 182.228 341.434 182.264 341.434 182.298ZM341.434 182.176C341.434 182.145 341.434 182.12 341.434 182.089C341.434 182.119 341.434 182.146 341.434 182.176ZM341.434 182.058C341.434 182.031 341.434 182.01 341.434 181.984C341.434 182.01 341.434 182.032 341.434 182.058ZM341.434 181.949C341.434 181.923 341.434 181.907 341.434 181.88C341.434 181.904 341.434 181.926 341.434 181.949ZM341.434 181.836C341.434 181.818 341.433 181.794 341.433 181.776C341.433 181.795 341.434 181.817 341.434 181.836ZM341.433 181.731C341.433 181.713 341.433 181.689 341.433 181.671C341.433 181.693 341.433 181.709 341.433 181.731ZM341.433 181.626C341.433 181.608 341.433 181.585 341.432 181.567C341.433 181.586 341.433 181.607 341.433 181.626ZM341.432 181.521C341.432 181.503 341.432 181.481 341.432 181.463C341.432 181.483 341.432 181.501 341.432 181.521ZM341.431 181.413C341.431 181.395 341.431 181.377 341.431 181.359C341.431 181.376 341.431 181.396 341.431 181.413ZM341.431 181.309C341.431 181.291 341.43 181.272 341.43 181.255C341.43 181.272 341.431 181.292 341.431 181.309ZM341.43 181.204C341.43 181.187 341.43 181.168 341.43 181.151C341.43 181.17 341.43 181.185 341.43 181.204ZM341.429 181.099C341.429 181.081 341.429 181.065 341.429 181.047C341.429 181.064 341.429 181.082 341.429 181.099ZM341.428 180.993C341.428 180.98 341.428 180.957 341.428 180.944C341.428 180.961 341.428 180.976 341.428 180.993ZM341.427 180.889C341.427 180.876 341.427 180.853 341.426 180.84C341.427 180.857 341.427 180.872 341.427 180.889ZM341.426 180.784C341.426 180.771 341.425 180.749 341.425 180.736C341.425 180.751 341.426 180.769 341.426 180.784ZM341.425 180.681C341.424 180.663 341.424 180.65 341.424 180.632C341.424 180.647 341.424 180.666 341.425 180.681ZM341.423 180.574C341.423 180.557 341.423 180.547 341.423 180.529C341.423 180.544 341.423 180.559 341.423 180.574ZM341.422 180.47C341.422 180.453 341.422 180.444 341.421 180.426C341.421 180.439 341.422 180.457 341.422 180.47ZM341.42 180.365C341.42 180.352 341.42 180.336 341.42 180.323C341.42 180.338 341.42 180.35 341.42 180.365ZM341.419 180.262C341.419 180.248 341.418 180.233 341.418 180.22C341.418 180.235 341.419 180.247 341.419 180.262ZM341.417 180.156C341.417 180.143 341.417 180.13 341.417 180.117C341.417 180.129 341.417 180.144 341.417 180.156ZM341.416 180.052C341.415 180.039 341.415 180.028 341.415 180.015C341.415 180.027 341.415 180.04 341.416 180.052ZM341.414 179.948C341.414 179.935 341.413 179.924 341.413 179.911C341.413 179.923 341.414 179.935 341.414 179.948ZM341.412 179.846C341.412 179.832 341.411 179.821 341.411 179.807C341.411 179.82 341.412 179.833 341.412 179.846ZM341.41 179.74C341.41 179.731 341.409 179.716 341.409 179.707C341.41 179.718 341.41 179.729 341.41 179.74ZM341.408 179.636C341.408 179.627 341.407 179.615 341.407 179.606C341.407 179.614 341.408 179.627 341.408 179.636ZM341.406 179.531C341.406 179.522 341.405 179.515 341.405 179.506C341.405 179.515 341.406 179.523 341.406 179.531ZM341.404 179.427C341.403 179.419 341.403 179.416 341.403 179.407C341.403 179.414 341.403 179.421 341.404 179.427ZM341.401 179.322C341.401 179.317 341.401 179.32 341.401 179.315C341.401 179.317 341.401 179.32 341.401 179.322ZM341.399 179.219V179.216V179.219Z" fill="#00805F"/>
<path d="M210.466 313.265C210.435 313.265 210.4 313.265 210.369 313.265C210.359 313.265 210.352 313.265 210.341 313.265C210.315 313.265 210.299 313.265 210.272 313.265C210.262 313.265 210.25 313.265 210.24 313.265C210.214 313.265 210.186 313.265 210.159 313.264C210.156 313.264 210.149 313.264 210.145 313.264C210.115 313.264 210.08 313.264 210.049 313.264C210.042 313.264 210.031 313.264 210.024 313.264C209.997 313.264 209.978 313.264 209.952 313.264C209.938 313.264 209.934 313.264 209.921 313.264C209.894 313.264 209.874 313.264 209.847 313.263C209.84 313.263 209.831 313.263 209.824 313.263C209.789 313.263 209.763 313.263 209.728 313.263C209.721 313.263 209.716 313.263 209.709 313.263C209.682 313.263 209.661 313.262 209.634 313.262C209.624 313.262 209.608 313.262 209.598 313.262C209.58 313.262 209.552 313.262 209.534 313.262C209.524 313.262 209.512 313.261 209.502 313.261C209.471 313.261 209.443 313.261 209.412 313.261C209.409 313.261 209.402 313.261 209.399 313.261C209.372 313.26 209.34 313.26 209.313 313.26C209.3 313.26 209.293 313.26 209.28 313.26C209.258 313.259 209.237 313.259 209.215 313.259C209.205 313.259 209.192 313.259 209.182 313.259C209.156 313.258 209.134 313.258 209.108 313.258C209.101 313.258 209.092 313.258 209.086 313.258C209.055 313.257 209.024 313.257 208.993 313.257C208.983 313.257 208.969 313.256 208.959 313.256C208.937 313.256 208.92 313.256 208.898 313.256C208.884 313.255 208.874 313.255 208.86 313.255C208.838 313.255 208.821 313.255 208.799 313.254C208.789 313.254 208.774 313.254 208.764 313.254C208.733 313.254 208.704 313.253 208.673 313.253C208.663 313.253 208.654 313.253 208.643 313.252C208.621 313.252 208.6 313.252 208.578 313.251C208.568 313.251 208.552 313.251 208.542 313.251C208.524 313.251 208.495 313.25 208.477 313.25C208.467 313.25 208.455 313.25 208.445 313.25C208.419 313.249 208.39 313.249 208.364 313.248C208.354 313.248 208.343 313.248 208.333 313.248C208.306 313.247 208.284 313.247 208.258 313.247C208.244 313.246 208.236 313.246 208.223 313.246C208.205 313.246 208.178 313.245 208.161 313.245C208.151 313.245 208.134 313.245 208.124 313.244C208.102 313.244 208.078 313.243 208.056 313.243C208.046 313.243 208.039 313.243 208.029 313.243C207.998 313.242 207.97 313.242 207.939 313.241C207.929 313.241 207.914 313.24 207.903 313.24C207.881 313.24 207.864 313.239 207.842 313.239C207.828 313.239 207.818 313.239 207.804 313.238C207.783 313.238 207.766 313.238 207.744 313.237C207.734 313.237 207.718 313.237 207.708 313.236C207.682 313.236 207.646 313.235 207.619 313.235C207.606 313.234 207.598 313.234 207.584 313.234C207.562 313.233 207.547 313.233 207.525 313.232C207.512 313.232 207.496 313.232 207.482 313.232C207.465 313.231 207.446 313.231 207.428 313.23C207.415 313.23 207.402 313.23 207.389 313.229C207.367 313.229 207.338 313.228 207.316 313.228C207.3 313.227 207.286 313.227 207.269 313.227C207.247 313.226 207.228 313.226 207.206 313.225C207.193 313.225 207.175 313.224 207.161 313.224C207.144 313.224 207.132 313.223 207.115 313.223C207.098 313.222 207.081 313.222 207.065 313.222C207.051 313.221 207.033 313.221 207.02 313.22C206.993 313.22 206.972 313.219 206.945 313.218C206.928 313.218 206.906 313.217 206.889 313.217C206.872 313.216 206.856 313.216 206.839 313.216C206.826 313.215 206.808 313.215 206.795 313.214C206.778 313.214 206.763 313.213 206.746 313.213C206.733 313.213 206.715 313.212 206.702 313.212C206.685 313.211 206.668 313.211 206.651 313.21C206.625 313.21 206.597 313.209 206.571 313.208C206.554 313.208 206.536 313.207 206.519 313.206C206.506 313.206 206.491 313.206 206.477 313.205C206.461 313.205 206.441 313.204 206.424 313.204C206.411 313.203 206.398 313.203 206.384 313.202C206.364 313.202 206.351 313.201 206.331 313.201C206.318 313.2 206.309 313.2 206.296 313.2C206.263 313.199 206.229 313.198 206.195 313.196C206.186 313.196 206.167 313.196 206.158 313.195C206.141 313.195 206.121 313.194 206.104 313.194C206.095 313.193 206.075 313.193 206.067 313.192C206.05 313.192 206.027 313.191 206.01 313.19C206.001 313.19 205.986 313.19 205.977 313.189C205.937 313.188 205.892 313.186 205.852 313.185C205.847 313.185 205.845 313.185 205.841 313.185C205.821 313.184 205.8 313.183 205.78 313.183C205.767 313.182 205.762 313.182 205.749 313.181C205.728 313.181 205.709 313.18 205.689 313.179C205.68 313.179 205.67 313.179 205.661 313.178C205.594 313.176 205.521 313.173 205.454 313.171C205.445 313.17 205.441 313.17 205.432 313.17C205.412 313.169 205.388 313.168 205.368 313.167C205.359 313.167 205.35 313.167 205.341 313.166C205.321 313.166 205.299 313.165 205.279 313.164C205.27 313.164 205.271 313.164 205.262 313.163C205.215 313.162 205.172 313.16 205.125 313.158C205.121 313.158 205.117 313.158 205.113 313.157C205.089 313.156 205.068 313.156 205.045 313.155C205.036 313.154 205.034 313.154 205.025 313.154C205.002 313.153 204.979 313.152 204.956 313.151C204.951 313.151 204.951 313.151 204.946 313.151C204.872 313.148 204.792 313.144 204.719 313.141C204.714 313.141 204.712 313.141 204.708 313.14C204.681 313.139 204.661 313.139 204.635 313.137H204.625C204.52 313.132 204.414 313.128 204.31 313.123C204.306 313.123 204.312 313.123 204.307 313.123C181.967 312.089 161.088 305.455 143.042 294.597C142.287 288.194 141.466 282.188 148.757 278.591C149.53 275.926 149.801 272.83 149.67 270.006C151.444 269.264 153.181 269.123 154.766 269.123C155.252 269.123 155.723 269.136 156.177 269.15C156.631 269.163 157.067 269.176 157.482 269.176C158.869 269.176 160.021 269.028 160.815 268.238C168.009 269.462 175.403 270.1 182.946 270.1C193.325 270.1 203.427 268.891 213.109 266.61C214.461 270.74 214.713 275.212 214.547 279.387C214.197 288.168 219.261 291.623 227.266 291.623C228.201 291.623 229.174 291.576 230.185 291.485C232.351 283.857 235.665 287.559 241.197 284.815C245.814 282.525 248.342 275.897 249.304 271.242C250.501 265.454 249.759 264.694 254.056 259.557C257.434 255.513 260.481 251.53 260.842 246.135C260.884 245.498 260.904 244.915 260.903 244.382C274.452 234.331 285.993 221.724 294.813 207.276C294.883 207.5 294.943 207.73 294.989 207.964C296.183 213.996 292.295 216.839 300.424 219.505C302.773 220.27 305.831 219.403 307.845 220.997C310.874 223.412 309.588 226.478 311.238 229.042C314.192 233.651 319.464 235.806 324.769 235.806C325.022 235.806 325.276 235.801 325.529 235.791C325.989 235.773 326.521 235.766 327.109 235.766C327.984 235.766 328.983 235.781 330.047 235.791C320.088 258.022 304.108 276.97 284.186 290.562C283.42 291.085 282.656 291.595 281.878 292.102C261.339 305.485 236.808 313.265 210.466 313.265ZM333.282 227.886C338.549 213.69 341.433 198.331 341.433 182.3C341.433 166.468 338.623 151.289 333.476 137.24C338.29 150.376 341.059 164.494 341.399 179.216V179.219C341.4 179.251 341.4 179.283 341.401 179.315C341.401 179.32 341.401 179.317 341.401 179.322C341.402 179.352 341.402 179.377 341.403 179.407C341.403 179.416 341.403 179.419 341.404 179.427C341.404 179.453 341.405 179.481 341.405 179.506C341.405 179.515 341.406 179.522 341.406 179.531C341.406 179.557 341.407 179.58 341.407 179.606C341.407 179.615 341.408 179.627 341.408 179.636C341.408 179.659 341.409 179.684 341.409 179.707C341.409 179.716 341.41 179.731 341.41 179.74C341.41 179.763 341.411 179.784 341.411 179.807C341.411 179.821 341.412 179.832 341.412 179.846C341.412 179.867 341.413 179.889 341.413 179.911C341.413 179.924 341.414 179.935 341.414 179.948C341.414 179.969 341.415 179.993 341.415 180.015C341.415 180.028 341.415 180.039 341.416 180.052C341.416 180.074 341.416 180.095 341.417 180.117C341.417 180.13 341.417 180.143 341.417 180.156C341.418 180.178 341.418 180.198 341.418 180.22C341.418 180.233 341.419 180.248 341.419 180.262C341.419 180.281 341.42 180.304 341.42 180.323C341.42 180.336 341.42 180.352 341.42 180.365C341.421 180.386 341.421 180.405 341.421 180.426C341.422 180.444 341.422 180.453 341.422 180.47C341.422 180.492 341.422 180.508 341.423 180.529C341.423 180.547 341.423 180.557 341.423 180.574C341.424 180.594 341.424 180.613 341.424 180.632C341.424 180.65 341.424 180.663 341.425 180.681C341.425 180.7 341.425 180.716 341.425 180.736C341.425 180.749 341.426 180.771 341.426 180.784C341.426 180.803 341.426 180.821 341.426 180.84C341.427 180.853 341.427 180.876 341.427 180.889C341.427 180.906 341.427 180.926 341.428 180.944C341.428 180.957 341.428 180.98 341.428 180.993C341.428 181.01 341.428 181.03 341.429 181.047C341.429 181.065 341.429 181.081 341.429 181.099C341.429 181.116 341.429 181.134 341.43 181.151C341.43 181.168 341.43 181.187 341.43 181.204C341.43 181.221 341.43 181.238 341.43 181.255C341.43 181.272 341.431 181.291 341.431 181.309C341.431 181.326 341.431 181.342 341.431 181.359C341.431 181.377 341.431 181.395 341.431 181.413C341.432 181.43 341.432 181.446 341.432 181.463C341.432 181.481 341.432 181.503 341.432 181.521C341.432 181.536 341.432 181.552 341.432 181.567C341.433 181.585 341.433 181.608 341.433 181.626C341.433 181.641 341.433 181.656 341.433 181.671C341.433 181.689 341.433 181.713 341.433 181.731C341.433 181.746 341.433 181.761 341.433 181.776C341.433 181.794 341.434 181.818 341.434 181.836C341.434 181.851 341.434 181.865 341.434 181.88C341.434 181.907 341.434 181.923 341.434 181.949C341.434 181.96 341.434 181.973 341.434 181.984C341.434 182.01 341.434 182.031 341.434 182.058C341.434 182.066 341.434 182.08 341.434 182.089C341.434 182.12 341.434 182.145 341.434 182.176C341.434 182.182 341.434 182.187 341.434 182.193C341.434 182.229 341.434 182.263 341.434 182.298C341.434 198.329 338.553 213.691 333.282 227.886ZM333.467 137.217C333.459 137.194 333.45 137.168 333.441 137.145C333.45 137.168 333.459 137.194 333.467 137.217ZM333.426 137.105C333.42 137.087 333.415 137.074 333.408 137.056C333.414 137.071 333.421 137.09 333.426 137.105ZM305.724 92.4218C305.721 92.4188 305.717 92.4148 305.714 92.4118C305.718 92.4158 305.72 92.4178 305.724 92.4218ZM305.662 92.3568C305.464 92.1468 305.264 91.9378 305.064 91.7288C305.264 91.9368 305.464 92.1478 305.662 92.3568Z" fill="#176FB6"/>
<path d="M227.266 291.623C219.261 291.623 214.197 288.168 214.547 279.387C214.713 275.212 214.461 270.74 213.109 266.61C230.67 262.471 246.863 254.798 260.903 244.382C260.904 244.915 260.884 245.498 260.842 246.135C260.481 251.53 257.434 255.513 254.056 259.557C249.759 264.694 250.501 265.454 249.304 271.242C248.342 275.897 245.814 282.525 241.197 284.815C235.665 287.559 232.351 283.857 230.185 291.485C229.174 291.576 228.201 291.623 227.266 291.623Z" fill="#00A5BB"/>
<path d="M324.769 235.806C319.464 235.806 314.192 233.651 311.238 229.042C309.588 226.478 310.874 223.412 307.845 220.997C305.831 219.403 302.773 220.27 300.424 219.505C292.295 216.839 296.183 213.996 294.989 207.964C294.943 207.73 294.883 207.5 294.813 207.276C306.932 187.424 313.914 164.095 313.914 139.133C313.914 122.414 310.775 106.429 305.064 91.7288C305.264 91.9378 305.464 92.1468 305.662 92.3568C305.68 92.3758 305.696 92.3928 305.714 92.4118C305.717 92.4148 305.721 92.4188 305.724 92.4218C317.744 105.158 327.24 120.303 333.408 137.056C333.415 137.074 333.42 137.087 333.426 137.105C333.432 137.12 333.436 137.13 333.441 137.145C333.45 137.168 333.459 137.194 333.467 137.217C333.47 137.224 333.473 137.233 333.476 137.24C338.623 151.289 341.433 166.468 341.433 182.3C341.433 198.331 338.549 213.69 333.282 227.886C332.288 230.564 331.209 233.199 330.047 235.791C328.983 235.781 327.984 235.766 327.109 235.766C326.521 235.766 325.989 235.773 325.529 235.791C325.276 235.801 325.022 235.806 324.769 235.806Z" fill="#00A5BB"/>
<path d="M127.469 283.611C110.179 269.427 96.583 250.902 88.348 229.703C96.532 238.25 105.866 245.691 116.097 251.776C115.016 254.078 114.094 256.439 114.244 259.014C114.459 262.594 115.568 262.994 116.809 265.949C117.274 267.051 119.399 268.058 119.586 268.662C120.145 270.509 118.141 270.816 118.281 271.889C118.449 273.165 118.579 274.452 118.7 275.729C121.504 278.486 124.429 281.116 127.469 283.611Z" fill="#176FB6"/>
<path d="M143.042 294.597C137.577 291.309 132.377 287.636 127.469 283.611C124.429 281.116 121.504 278.486 118.7 275.729C118.579 274.452 118.449 273.165 118.281 271.889C118.141 270.816 120.145 270.509 119.586 268.662C119.399 268.058 117.274 267.051 116.809 265.949C115.568 262.994 114.459 262.594 114.244 259.014C114.094 256.439 115.016 254.078 116.097 251.776C129.622 259.821 144.717 265.498 160.815 268.238C160.021 269.028 158.869 269.176 157.482 269.176C157.067 269.176 156.631 269.163 156.177 269.15C155.723 269.136 155.252 269.123 154.766 269.123C153.181 269.123 151.444 269.264 149.67 270.006C149.801 272.83 149.53 275.926 148.757 278.591C141.466 282.188 142.287 288.194 143.042 294.597Z" fill="#00A5BB"/>
<path d="M366.512 135.043C361.391 107.176 341.545 119.697 341.545 119.697C313.698 93.4498 308.895 127.38 308.895 127.38C296.091 122.578 292.571 135.062 292.571 135.062C274.898 130.783 269.444 140.018 267.974 148.506H386.086C382.793 128.206 366.512 135.043 366.512 135.043Z" fill="#FEFEFE"/>
<path d="M107.585 155.04C104.366 137.525 91.891 145.394 91.891 145.394C74.388 128.896 71.369 150.223 71.369 150.223C63.321 147.205 61.108 155.051 61.108 155.051C50 152.362 46.572 158.167 45.647 163.502H119.888C117.818 150.742 107.585 155.04 107.585 155.04Z" fill="#FEFEFE"/>
<path d="M151.031 80.2008C146.934 57.9018 131.053 67.9208 131.053 67.9208C108.769 46.9178 104.926 74.0678 104.926 74.0678C94.68 70.2258 91.863 80.2148 91.863 80.2148C77.722 76.7918 73.357 84.1818 72.181 90.9738H166.694C164.059 74.7298 151.031 80.2008 151.031 80.2008Z" fill="#FEFEFE"/>
<path d="M138.86 165.774C136.724 165.467 134.503 165.755 132.619 164.522C129.207 162.303 130.269 159.777 127.669 157.372C126.208 156.027 124.743 154.89 122.833 154.89C122.28 154.89 121.689 154.986 121.05 155.199C116.915 156.581 119.797 157.085 118.933 159.882C117.157 155.365 113.922 154.344 111.359 154.344C109.243 154.344 107.585 155.04 107.585 155.04C107.247 153.204 106.808 151.645 106.292 150.328C106.391 150.15 106.497 149.969 106.609 149.783C109.601 144.851 117.759 145.262 119.026 140.945C120.901 134.517 113.673 133.335 108.92 133.335C108.572 133.335 108.237 133.341 107.92 133.352C110.926 126.169 115.307 118.66 120.94 111.437C121.016 111.34 121.091 111.245 121.167 111.148C121.609 111.208 122.046 111.243 122.479 111.243C124.807 111.243 127.019 110.253 129.207 107.011C130.624 104.912 128.599 101.948 131.402 101.948C131.735 101.948 132.136 101.99 132.619 102.08C134.194 102.379 136.087 105.837 136.656 107.011C137.858 109.501 136.889 112.381 138.166 115.019C139.033 116.828 141.923 116.996 142.93 119.215C144.188 122.011 142.585 125.228 143.424 128.052C144.216 130.709 145.903 131.324 146.985 133.329C149.949 138.839 149.372 140.013 146.836 145.691C144.915 149.979 142.119 155.069 145.987 159.432C146.211 159.684 146.483 159.93 146.797 160.166C144.152 162.292 141.492 164.168 138.86 165.774Z" fill="#679CC5"/>
<path d="M146.797 160.166C146.483 159.93 146.211 159.684 145.987 159.432C142.119 155.069 144.915 149.979 146.836 145.691C149.372 140.013 149.949 138.839 146.985 133.329C145.903 131.324 144.216 130.709 143.424 128.052C142.585 125.228 144.188 122.011 142.93 119.215C141.923 116.996 139.033 116.828 138.166 115.019C136.889 112.381 137.858 109.501 136.656 107.011C136.087 105.837 134.194 102.379 132.619 102.08C132.136 101.99 131.735 101.948 131.402 101.948C128.599 101.948 130.624 104.912 129.207 107.011C127.019 110.253 124.807 111.243 122.479 111.243C122.046 111.243 121.609 111.208 121.167 111.148C127.811 102.688 135.253 95.8168 142.572 90.9738H166.694C166.096 87.2838 164.96 84.7138 163.564 82.9458C163.889 82.9318 164.211 82.9248 164.531 82.9248C168.305 82.9248 171.64 83.9118 174.31 85.9938C185.821 94.9728 180.59 120.921 162.626 143.952C157.673 150.303 152.268 155.769 146.797 160.166Z" fill="#78CCCB"/>
<path d="M115.692 165.607C114.949 165.607 113.992 164.887 112.494 163.502H117.558C116.938 164.923 116.417 165.607 115.692 165.607Z" fill="#679CC5"/>
<path d="M119.036 172.465C115.262 172.465 111.928 171.478 109.258 169.396C107.316 167.882 105.851 165.886 104.843 163.502H112.494C113.992 164.887 114.949 165.607 115.692 165.607C116.417 165.607 116.938 164.923 117.558 163.502H119.888C119.66 162.098 119.334 160.901 118.933 159.882C119.797 157.085 116.915 156.581 121.05 155.199C121.689 154.986 122.28 154.89 122.833 154.89C124.743 154.89 126.208 156.027 127.669 157.372C130.269 159.777 129.207 162.303 132.619 164.522C134.503 165.755 136.724 165.467 138.86 165.774C131.769 170.099 124.877 172.465 119.036 172.465ZM106.292 150.328C105.616 148.603 104.808 147.292 103.925 146.307C104.697 142.217 106.039 137.848 107.92 133.352C108.237 133.341 108.572 133.335 108.92 133.335C113.673 133.335 120.901 134.517 119.026 140.945C117.759 145.262 109.601 144.851 106.609 149.783C106.497 149.969 106.391 150.15 106.292 150.328Z" fill="#78CCCB"/>
<path d="M119.888 163.502H117.558H112.494H104.843C102.921 158.957 102.659 153.005 103.925 146.307C104.808 147.292 105.616 148.603 106.292 150.328C106.808 151.645 107.247 153.204 107.585 155.04C107.585 155.04 109.243 154.344 111.359 154.344C113.922 154.344 117.157 155.365 118.933 159.882C119.334 160.901 119.66 162.098 119.888 163.502Z" fill="#FEFEFE"/>
<path d="M166.694 90.9738H142.572C150.018 86.0458 157.34 83.2158 163.564 82.9458C164.96 84.7138 166.096 87.2838 166.694 90.9738Z" fill="#FEFEFE"/>
<path d="M419.492 325.333C419.492 329.088 404.055 332.133 385.011 332.133C365.969 332.133 350.531 329.088 350.531 325.333C350.531 321.577 365.969 318.532 385.011 318.532C404.055 318.532 419.492 321.577 419.492 325.333Z" fill="#96D6E0"/>
<path d="M361.376 292.466L369.172 274.822L359.074 266.68L350.762 289.454C350.762 289.454 348.741 293.804 356.665 299.398L372.309 314.614L377.172 312.287C377.172 312.287 366.607 297.595 361.376 292.466Z" fill="#384968"/>
<path d="M372.309 314.614L373.597 316.205L361.843 322.93L361.502 324.381L382.152 321.479L379.2 314.614L377.172 312.287L372.309 314.614Z" fill="#F7A48D"/>
<path d="M372.768 315.182L373.597 316.205L379.2 314.614L377.857 313.073L372.768 315.182Z" fill="#FEFEFE"/>
<path d="M361.843 322.93L361.502 324.381L382.152 321.479L379.2 314.614L373.597 316.205L361.843 322.93Z" fill="#3D3A5F"/>
<path d="M382.152 321.479L381.424 319.785L361.843 322.93L361.502 324.381L382.152 321.479Z" fill="#00B8B9"/>
<path d="M358.832 268.131L364.83 284.649L369.172 274.822L359.368 266.916L358.832 268.131Z" fill="#3D3A5F"/>
<path d="M310.369 212.608C310.369 212.608 309.86 211.361 310.369 208.194C310.369 208.194 309.52 201.407 311.331 203.67V202.255C311.331 202.255 309.86 199.767 310.737 198.409L311.331 199.031C311.331 199.031 310.934 198.013 311.331 197.108C311.331 197.108 312.293 198.692 312.406 199.257L312.802 201.86L312.972 204.858C312.972 204.858 313.369 210.344 313.765 211.193C313.765 211.193 324.116 217.075 327.114 217.811L327.681 222.789L310.369 212.608Z" fill="#F48B76"/>
<path d="M327.681 222.789L327.114 217.811C324.116 217.075 313.765 211.193 313.765 211.193L312.213 213.691L327.681 222.789Z" fill="#FEFEFE"/>
<path d="M313.59 214.501L328.041 223.011L327.75 218.073C325.35 217.486 317.611 213.34 314.867 211.812L313.59 214.501Z" fill="#F79B3D"/>
<path d="M337.808 227.243C337.808 227.243 341.161 227.338 343.716 228.996L346.534 225.83L342.775 221.961L338.105 223.329L337.808 227.243Z" fill="#F48B76"/>
<path d="M344.948 224.198L344.008 223.015L340.046 227.172L340.861 228.492L344.642 226.274L344.948 224.198Z" fill="#FEFEFE"/>
<path d="M343.741 219.196C343.741 219.196 342.023 207.318 332.272 210.899C332.272 210.899 322.931 213.489 329.876 227.705L331.592 226.859C331.592 226.859 333.903 230.601 335.877 229.522L343.209 222.419L343.741 219.196Z" fill="#F7A48D"/>
<path d="M340.577 216.899L335.543 212.793L327.901 215.14C327.062 217.3 326.931 220.486 328.748 225.147L340.577 216.899Z" fill="#F48B76"/>
<path d="M343.741 219.196C343.741 219.196 342.023 207.318 332.272 210.899C332.272 210.899 325.902 212.665 327.595 221.288C327.601 221.292 328.661 221.978 331.957 220.606C331.957 220.606 333.916 221.008 335.207 223.509L336.383 222.798C336.383 222.798 334.887 219.167 336.404 217.998L338.367 218.419C338.367 218.419 339.658 221.483 341.925 221.582L343.412 221.193L343.741 219.196Z" fill="#384968"/>
<path d="M335.207 223.509L336.383 222.798C336.383 222.798 334.887 219.167 336.404 217.998L338.367 218.419C338.367 218.419 339.658 221.483 341.925 221.582L343.412 221.193L343.741 219.196C343.741 219.196 342.898 213.404 339.068 211.131C335.921 217.617 329.86 219.367 327.378 219.819C327.425 220.285 327.493 220.774 327.595 221.288C327.601 221.292 328.661 221.978 331.957 220.606C331.957 220.606 333.916 221.008 335.207 223.509Z" fill="#3D3A5F"/>
<path d="M338.544 218.793C339.093 220.135 338.856 221.502 338.017 221.844C337.177 222.189 336.051 221.379 335.503 220.038C334.953 218.696 335.189 217.329 336.029 216.986C336.869 216.642 337.995 217.45 338.544 218.793Z" fill="#F7A48D"/>
<path d="M336.755 233.998L378.87 299.11L402.176 316.979L407.303 313.871L388.037 294.605L372.029 257.158L350.669 227.483L344.948 224.198L336.755 233.998Z" fill="#384968"/>
<path d="M344.948 224.198L336.755 233.998L358.832 268.131C368.472 264.81 372.029 257.158 372.029 257.158L350.669 227.483L344.948 224.198Z" fill="#FDC54F"/>
<path d="M344.019 235.724C343.463 232.861 341.735 231.225 339.866 230.277L336.755 233.998L338.564 236.797C341.878 236.757 344.019 235.724 344.019 235.724Z" fill="#F79B3D"/>
<path d="M307.322 210.466C307.322 210.466 323.952 217.018 325.296 220.713C325.296 220.713 336.215 225.416 342.263 225.416C342.263 225.416 348.813 226.088 346.63 233.816C346.63 233.816 344.95 238.856 334.871 232.977L321.097 225.584C321.097 225.584 307.658 215.843 304.467 211.811C304.467 211.811 302.111 209.666 303.469 203.727C303.469 203.727 303.469 197.787 304.487 198.523C304.487 198.523 304.035 195.728 305.223 195.728C305.223 195.728 306.523 198.239 306.75 199.145L306.862 201.351C306.862 201.351 307.599 203.33 307.599 204.575C307.599 204.575 307.725 208.609 307.322 210.466Z" fill="#F7A48D"/>
<path d="M346.63 233.816C348.813 226.088 342.263 225.416 342.263 225.416C336.215 225.416 325.296 220.713 325.296 220.713C323.952 217.018 307.322 210.466 307.322 210.466L305.473 212.934C309.814 217.404 321.097 225.584 321.097 225.584L334.871 232.977C344.95 238.856 346.63 233.816 346.63 233.816Z" fill="#FEFEFE"/>
<path d="M306.568 214.005C311.454 218.592 321.097 225.584 321.097 225.584L334.871 232.977C344.95 238.856 346.63 233.816 346.63 233.816C348.813 226.088 342.263 225.416 342.263 225.416C336.215 225.416 325.296 220.713 325.296 220.713C324.154 217.573 311.979 212.372 308.346 210.881L306.568 214.005Z" fill="#FDC54F"/>
<path d="M402.176 316.979L403.564 318.326L391.974 324.55L391.767 325.898L411.726 324.55L412.744 319.314L407.303 313.871L402.176 316.979Z" fill="#F7A48D"/>
<path d="M402.721 317.507L403.564 318.326L410.41 316.979L407.876 314.444L402.721 317.507Z" fill="#FEFEFE"/>
<path d="M410.41 316.979L403.564 318.326L391.974 324.55L391.767 325.898L411.726 324.55L412.744 319.314L410.41 316.979Z" fill="#3D3A5F"/>
<path d="M411.726 324.55L412.054 322.864V322.862L391.974 324.55L391.767 325.898L411.726 324.55Z" fill="#00B8B9"/>
<path d="M234.604 358.42C234.604 362.176 210.541 365.22 180.855 365.22C151.173 365.22 127.109 362.176 127.109 358.42C127.109 354.665 151.173 351.62 180.855 351.62C210.541 351.62 234.604 354.665 234.604 358.42Z" fill="#96D6E0"/>
<path d="M152.351 323.962H204.074V326.704H152.351V323.962Z" fill="#F79B3D"/>
<path d="M203.195 323.962H199.09L200.367 326.704H204.074V325.847L203.195 323.962Z" fill="#3D3A5F"/>
<path d="M155.751 273.944H181.214V276.687H155.751V273.944Z" fill="#3D3A5F"/>
<path d="M172.585 253.85L171.289 258.864L145.465 358.42H141.606L168.809 253.561L168.976 252.918C169.237 251.92 170.254 251.323 171.251 251.574C171.764 251.714 172.175 252.049 172.417 252.479C172.463 252.572 172.51 252.676 172.548 252.777C172.659 253.112 172.678 253.477 172.585 253.85Z" fill="#FDC54F"/>
<path d="M170.642 252.777C170.604 252.676 170.558 252.572 170.512 252.479L170.122 251.646C169.577 251.853 169.136 252.31 168.976 252.918L168.809 253.561L168.129 256.181L169.384 258.864L170.607 261.492L171.289 258.864L172.07 255.84L170.642 252.777Z" fill="#F79B3D"/>
<path d="M177.517 282.068H194.04V283.901H177.517V282.068Z" fill="#3D3A5F"/>
<path d="M182.946 294.012H199.47V295.845H182.946V294.012Z" fill="#3D3A5F"/>
<path d="M188.376 305.956H204.899V307.789H188.376V305.956Z" fill="#3D3A5F"/>
<path d="M193.806 317.901H210.329V319.734H193.806V317.901Z" fill="#3D3A5F"/>
<path d="M199.234 329.845H215.759V331.679H199.234V329.845Z" fill="#3D3A5F"/>
<path d="M204.664 341.789H221.188V343.623H204.664V341.789Z" fill="#3D3A5F"/>
<path d="M196.779 186.503C196.932 185.49 196.021 182.728 194.576 183.271C194.154 183.43 194.08 183.819 194.087 184.232C194.101 185.076 194.559 186.294 195.211 186.859C195.835 187.399 196.643 187.406 196.779 186.503Z" fill="#F48B76"/>
<path d="M206.061 186.503C205.909 185.49 206.82 182.728 208.266 183.271C208.687 183.43 208.762 183.819 208.755 184.232C208.74 185.076 208.282 186.294 207.631 186.859C207.007 187.399 206.198 187.406 206.061 186.503Z" fill="#F48B76"/>
<path d="M208.755 180.652C208.755 176.615 205.483 173.342 201.446 173.342C197.409 173.342 194.137 176.615 194.137 180.652C194.137 182.051 194.538 183.355 195.221 184.467H195.216C195.216 184.467 197.01 187.384 197.453 191.732H204.829C204.829 191.732 206.309 186.995 207.677 184.467H207.672C208.354 183.355 208.755 182.051 208.755 180.652Z" fill="#F7A48D"/>
<path d="M234.604 195.39C234.604 195.39 235.207 192.568 235.504 191.741C235.504 191.741 236.567 189.99 238.331 188.999L239.071 191.642C239.071 191.642 236.678 195.635 234.604 195.39Z" fill="#F7A48D"/>
<path d="M238.798 198.942H237.865V181.682L254.041 171.986V167.497H238.331V166.564H254.974V172.515L238.798 182.21V198.942Z" fill="#FDC54F"/>
<path d="M238.331 198.944C237.559 198.944 236.934 198.318 236.934 197.546V186.634C236.934 185.862 237.559 185.236 238.331 185.236C239.103 185.236 239.729 185.862 239.729 186.634V197.546C239.729 198.318 239.103 198.944 238.331 198.944Z" fill="#F79B3D"/>
<path d="M178.584 210.662C178.584 210.662 180.508 215.598 187.335 216.66C187.335 216.66 186.705 207.072 178.584 210.662Z" fill="#384968"/>
<path d="M212.308 230.589C212.308 230.589 209.355 290.67 208.267 301.308H202.212L195.842 229.608C195.842 229.608 204.85 222.821 212.308 230.589Z" fill="#384968"/>
<path d="M196.812 240.667L197.801 251.914C204.034 246.696 207.455 239.902 207.455 239.902L196.812 240.667Z" fill="#3D3A5F"/>
<path d="M189.312 192.368L196.148 190.038C196.148 190.038 203.584 188.787 207.025 190.038L216.348 194.544C216.348 194.544 216.813 202.313 218.367 207.44L212.308 230.589L191.487 229.348L188.069 205.264L189.312 192.368Z" fill="#FDC54F"/>
<path d="M192.743 202.333L188.174 204.176L188.069 205.264L190.048 219.204C193.898 211.701 192.743 202.333 192.743 202.333Z" fill="#F79B3D"/>
<path d="M212.308 230.589C212.308 230.589 214.223 244.12 185.159 248.677L190.38 277.419H184.248L171.598 243.126L191.349 233.412L191.487 229.348L212.308 230.589Z" fill="#384968"/>
<path d="M184.248 277.419L173.763 280.404V282.068H190.736L190.38 277.419H184.248Z" fill="#3D3A5F"/>
<path d="M190.736 282.068L190.608 280.404H173.763V282.068H190.736Z" fill="#FEFEFE"/>
<path d="M202.212 301.308L191.65 304.294V305.956H208.625L208.267 301.308H202.212Z" fill="#3D3A5F"/>
<path d="M208.625 305.956L208.497 304.294H191.65V305.956H208.625Z" fill="#FEFEFE"/>
<path d="M189.312 192.368C189.312 192.368 193.242 196.343 190.736 206.14L183.959 221.207L170.593 240.953H158.608C158.608 240.953 162.581 236.276 168.885 236.753C168.885 236.753 184.439 195.884 189.312 192.368Z" fill="#F7A48D"/>
<path d="M178.584 210.662C178.584 210.662 185.081 210.035 187.335 216.66C187.335 216.66 198.343 199.13 189.312 192.368C189.312 192.368 184.564 193.728 178.584 210.662Z" fill="#FDC54F"/>
<path d="M223.378 198.485L228.81 199.381L234.604 195.39C234.604 195.39 236.574 190.721 239.729 188.597C239.729 188.597 242.433 190.111 240.854 195.511L236.91 197.939L230.424 205.706C230.424 205.706 222.165 206.009 222.225 206.191C222.286 206.373 223.378 198.485 223.378 198.485Z" fill="#F7A48D"/>
<path d="M216.348 194.544L224.893 198.273C224.893 198.273 227.369 204.22 224.417 207.327L218.367 207.44C218.367 207.44 212.308 200.758 216.348 194.544Z" fill="#FDC54F"/>
<path d="M215.722 217.549C208.382 224.766 195.752 226.4 191.12 226.76L191.487 229.348L212.308 230.589L215.722 217.549Z" fill="#F79B3D"/>
<path d="M225.74 204.575C222.414 204.547 219.2 203.424 219.2 203.424C218.855 204.69 218.367 207.44 218.367 207.44L224.417 207.327C225.162 206.544 225.559 205.579 225.74 204.575Z" fill="#F79B3D"/>
<path d="M250.799 168.76C250.799 169.813 249.944 170.668 248.891 170.668H227.772C226.719 170.668 225.865 169.813 225.865 168.76V165.301C225.865 164.247 226.719 163.393 227.07 163.185H248.188C249.944 163.393 250.799 164.247 250.799 165.301V168.76Z" fill="#D4EDEE"/>
<path d="M248.891 168.063H227.772C226.719 168.063 225.865 167.208 225.865 166.154V168.76C225.865 169.813 226.719 170.668 227.772 170.668H248.891C249.944 170.668 250.799 169.813 250.799 168.76V166.154C250.799 167.208 249.944 168.063 248.891 168.063Z" fill="#92C4C2"/>
<path d="M207.672 184.467C208.354 183.355 208.755 182.051 208.755 180.652C208.755 176.615 205.483 173.342 201.446 173.342C197.409 173.342 194.137 176.615 194.137 180.652C194.137 182.051 194.538 183.355 195.221 184.467H195.216C195.216 184.467 195.429 184.816 195.723 185.441C196.691 186.261 197.894 187.961 197.894 187.961H204.852C205.53 187.369 207.152 185.524 207.154 185.521C207.328 185.144 207.503 184.787 207.677 184.467H207.672Z" fill="#384968"/>
<path d="M207.16 176.101C206.887 177.006 206.805 178.142 206.517 178.719C206.018 179.714 205.263 180.686 204.351 181.309C202.548 182.543 200.37 182.922 198.23 182.699C197.017 182.573 195.291 181.952 194.16 180.968C194.216 182.246 194.59 183.441 195.221 184.467H195.216C195.216 184.467 195.429 184.816 195.723 185.441C196.691 186.261 197.894 187.961 197.894 187.961H204.852C205.53 187.369 207.152 185.524 207.154 185.521C207.328 185.144 207.503 184.787 207.677 184.467H207.672C208.354 183.355 208.755 182.051 208.755 180.652C208.755 178.929 208.156 177.35 207.16 176.101Z" fill="#3D3A5F"/>
<path d="M221.798 358.42H217.686L171.289 258.864L168.809 253.561L166.115 247.771H156.699C155.674 247.771 154.835 246.943 154.835 245.907C154.835 244.881 155.674 244.042 156.699 244.042H167.299C168.026 244.042 168.687 244.462 168.986 245.123L172.417 252.479C172.463 252.572 172.51 252.676 172.548 252.777L221.798 358.42Z" fill="#FDC54F"/>
<path d="M155.362 240.953L151.493 244.822V247.773H170.226L167.048 240.953H155.362Z" fill="#384968"/>
<path d="M170.226 247.773L168.851 244.822H151.493V247.773H170.226Z" fill="#3D3A5F"/>
<path d="M170.222 247.773H166.116L167.488 250.724H171.598L170.222 247.773Z" fill="#F79B3D"/>
<path d="M138.961 356.587H148.43V358.42H138.961V356.587Z" fill="#384968"/>
<path d="M214.553 356.587H224.02V358.42H214.553V356.587Z" fill="#384968"/>
<path d="M220.943 356.587L218.849 352.093H214.738L216.832 356.587H220.943Z" fill="#00B8B9"/>
<path d="M145.941 356.587L147.106 352.093H143.248L142.082 356.587H145.941Z" fill="#00B8B9"/>
<path d="M114.706 323.143C114.706 326.898 102.293 329.943 86.98 329.943C71.668 329.943 59.255 326.898 59.255 323.143C59.255 319.387 71.668 316.342 86.98 316.342C102.293 316.342 114.706 319.387 114.706 323.143Z" fill="#96D6E0"/>
<path d="M128.266 236.705H119.437V230.941H128.266V236.705Z" fill="#3D3A5F"/>
<path d="M120.545 248.63C120.545 248.63 120.809 245.755 121.008 244.9C121.008 244.9 121.856 243.034 123.491 241.843L124.539 244.38C124.539 244.38 122.634 248.628 120.545 248.63Z" fill="#F7A48D"/>
<path d="M123.869 249.469C123.266 249.471 122.774 248.984 122.772 248.379L122.745 239.854C122.743 239.249 123.23 238.759 123.834 238.758C124.437 238.756 124.929 239.242 124.931 239.847L124.958 248.371C124.96 248.976 124.473 249.466 123.869 249.469Z" fill="#F79B3D"/>
<path d="M124.931 239.847C124.929 239.242 124.437 238.756 123.834 238.758C123.23 238.759 122.743 239.249 122.745 239.854L122.749 241.105H124.934L124.931 239.847Z" fill="#C67D3F"/>
<path d="M124.934 241.152C122.051 243.636 120.545 248.63 120.545 248.63L118.941 250.041C120.914 250.073 121.785 251.793 121.553 253.319L123.136 250.888L126.766 248.011C127.695 242.462 124.934 241.152 124.934 241.152Z" fill="#F7A48D"/>
<path d="M119.267 249.469L120.132 248.39C120.132 248.39 121.85 248.63 123.394 251.376L122.102 252.586L119.267 249.469Z" fill="#FEFEFE"/>
<path d="M61.044 253.73C61.044 253.73 65.28 267.581 74.569 282.898L77.552 317.901L93.471 317.444V315.297L81.721 312.706L83.694 280.128L71.306 255.768L61.044 253.73Z" fill="#1A6DB1"/>
<path d="M93.471 315.297L81.721 312.706H77.108L77.552 317.901L93.471 317.444V315.297Z" fill="#3D3A5F"/>
<path d="M93.471 316.342L77.458 316.801L77.552 317.901L93.471 317.444V316.342Z" fill="#FDC54F"/>
<path d="M72.361 265.714C72.361 265.714 77.041 276.421 83.33 286.135L83.694 280.128L79.843 272.555L72.361 265.714Z" fill="#3D3A5F"/>
<path d="M104.492 230.622C104.492 230.622 101.069 230.719 98.464 232.41L95.588 229.18L99.423 225.232L104.187 226.627L104.492 230.622Z" fill="#F48B76"/>
<path d="M98.438 222.412C98.438 222.412 100.19 210.291 110.14 213.944C110.14 213.944 119.672 216.588 112.585 231.093L110.835 230.229C110.835 230.229 108.475 234.047 106.462 232.946L98.981 225.7L98.438 222.412Z" fill="#F7A48D"/>
<path d="M101.665 220.068L106.803 215.878L114.599 218.273C115.455 220.476 115.591 223.727 113.735 228.483L101.665 220.068Z" fill="#F48B76"/>
<path d="M98.438 222.412C98.438 222.412 100.19 210.291 110.14 213.944C110.14 213.944 116.64 215.748 114.913 224.545C114.905 224.55 113.824 225.249 110.461 223.85C110.461 223.85 108.463 224.26 107.145 226.812L105.946 226.087C105.946 226.087 107.472 222.382 105.924 221.189L103.921 221.618C103.921 221.618 102.603 224.744 100.291 224.846L98.774 224.448L98.438 222.412Z" fill="#384968"/>
<path d="M106.229 221.52C107.234 222.949 105.946 226.087 105.946 226.087L107.145 226.812C108.463 224.26 110.461 223.85 110.461 223.85C113.824 225.249 114.905 224.55 114.913 224.545C115.297 222.591 115.26 220.997 114.992 219.677C113.837 220.151 112.727 220.69 111.542 221.048C110.101 221.484 108.11 221.694 106.229 221.52Z" fill="#3D3A5F"/>
<path d="M103.921 221.618L105.106 221.364C104.004 221.155 102.985 220.799 102.222 220.223C101.288 219.519 100.669 218.31 100.434 217.011C98.857 219.538 98.438 222.412 98.438 222.412L98.774 224.448L100.291 224.846C102.603 224.744 103.921 221.618 103.921 221.618Z" fill="#3D3A5F"/>
<path d="M103.741 222.001C103.181 223.369 103.421 224.763 104.279 225.113C105.136 225.464 106.285 224.638 106.844 223.27C107.404 221.901 107.163 220.506 106.306 220.155C105.449 219.805 104.301 220.631 103.741 222.001Z" fill="#F7A48D"/>
<path d="M94.133 228.069L97.019 226.504L102.75 232.41L101.383 233.471L94.133 228.069Z" fill="#FEFEFE"/>
<path d="M67.196 255.527C67.196 255.527 70.901 266.829 87.393 286.1L88.488 325.898H106.177V323.962L93.471 320.69L98.697 283.321L84.984 256.569L67.196 255.527Z" fill="#1A6DB1"/>
<path d="M61.044 253.73C61.044 253.73 67.196 234.615 94.133 228.069C94.133 228.069 100.904 230.338 104.492 235.44C104.492 235.44 100.418 242.27 88.488 251.518L86.095 258.734C86.095 258.734 65.936 263.639 61.044 253.73Z" fill="#5E4598"/>
<path d="M86.095 258.734L88.488 251.518C93.408 247.703 96.974 244.313 99.487 241.631L98.108 240.127L86.686 249.247C86.686 249.247 84.209 248.371 82.767 246.298C82.767 246.298 83.191 249.138 85.871 251.518L83.694 257.042C83.694 257.042 67.913 259.856 61.044 253.73C65.936 263.639 86.095 258.734 86.095 258.734Z" fill="#563F90"/>
<path d="M104.492 235.44C104.492 235.44 112.128 246.625 115.514 252.485L119.355 248.837C119.355 248.837 121.634 249.361 122.676 252.485L115.904 259.062C115.904 259.062 113.368 261.486 106.821 253.73L98.065 243.111C98.065 243.111 96.792 234.282 104.492 235.44Z" fill="#5E4598"/>
<path d="M106.177 323.962L93.471 320.69H88.345L88.488 325.898H106.177V323.962Z" fill="#3D3A5F"/>
<path d="M88.488 325.898H106.177V323.962H88.434L88.488 325.898Z" fill="#FDC54F"/>
<path d="M128.428 240.127H119.275V235.729H128.428V240.127Z" fill="#F79B3D"/>
<path d="M128.428 237.6L119.275 238.222V236.975H128.428V237.6Z" fill="#C67D3F"/>
<path d="M119.437 232.731C119.569 232.78 119.711 232.819 119.859 232.844C120.16 232.891 120.504 232.942 120.719 233.2C120.927 233.451 120.892 233.783 121.052 234.056C121.602 234.994 121.945 233.851 122.194 233.434C122.467 232.977 123.32 232.685 123.831 232.971C124.355 233.266 123.894 234.162 124.382 234.508C125.064 234.994 125.255 233.548 125.329 233.158C125.423 232.669 125.724 231.897 126.402 232.055C127.042 232.204 126.894 233.166 127.062 233.64C127.145 233.873 127.304 234.271 127.596 234.035C127.786 233.882 127.713 233.344 127.742 233.119C127.783 232.819 127.824 232.553 128.048 232.321L128.266 232.164V230.941H119.437V232.731Z" fill="#D4EDEE"/>
<path d="M290.706 371.796C290.706 375.552 278.293 378.596 262.979 378.596C247.668 378.596 235.254 375.552 235.254 371.796C235.254 368.04 247.668 364.995 262.979 364.995C278.293 364.995 290.706 368.04 290.706 371.796Z" fill="#96D6E0"/>
<path d="M270.393 303.859C270.393 303.859 273.148 312.652 267.281 336.993L268.067 365.065H264.659C264.659 365.065 258.306 351.168 259.049 338.238C259.049 338.238 254.214 318.042 256.517 305.856C256.517 305.856 262.821 299.933 270.393 303.859Z" fill="#1A6DB1"/>
<path d="M255.896 313.263C256.024 318.815 257.524 323.621 259.822 327.042C261.001 321.587 260.123 314.306 260.913 303.92L260.567 303.405C258.073 304.394 256.517 305.856 256.517 305.856C256.44 306.258 256.378 306.655 256.316 307.054C256.033 308.991 255.907 311.094 255.896 313.263Z" fill="#3D3A5F"/>
<path d="M246.49 297.069C246.49 297.069 240.12 310.142 248.199 334.692C248.199 334.692 244.626 340.131 248.199 367.009H251.307L255.657 335.158C255.657 335.158 260.029 316.07 261.028 302.93L246.49 297.069Z" fill="#1A6DB1"/>
<path d="M283.215 270.267C283.215 270.267 286.282 273.041 279.99 290.638L278.941 309.406L279.99 313.033L278.941 317.193C278.941 317.193 277.392 315.73 278.29 313.48C278.29 313.48 275.085 315.273 274.125 313.139L275.512 308.768L273.642 291.704L277.218 274.001C277.218 274.001 278.12 270.263 283.215 270.267Z" fill="#F48B76"/>
<path d="M279.186 328.733L277.382 328.263C279.103 321.65 278.685 316.784 276.14 313.8C272.934 310.045 267.341 310.544 267.282 310.548C255.952 310.944 255.121 326.778 255.113 326.937L253.251 326.855C253.259 326.679 254.184 309.141 267.16 308.689C267.371 308.663 273.728 308.105 277.558 312.589C280.523 316.064 281.07 321.494 279.186 328.733Z" fill="#FDC54F"/>
<path d="M267.281 308.979L265.611 309.478L263.331 308.979C263.331 308.979 263.656 310.005 263.33 311.236L263.342 311.241C263.326 311.402 263.334 311.569 263.38 311.74C263.61 312.611 264.376 312.627 265.137 312.625C265.994 312.624 266.644 312.671 267.452 312.917C268.142 313.124 268.889 313.107 269.487 312.602C269.715 312.41 270.023 312.016 270.081 311.886L271.232 310.259L267.281 308.979Z" fill="#F48B76"/>
<path d="M260.368 264.532C260.368 264.532 269.774 253.504 283.215 270.267C283.215 270.267 282.542 274.745 278.44 281.357C278.44 281.357 276.176 286.154 271.791 286.369C271.791 286.369 269.008 298.206 270.393 303.859C270.393 303.859 255.545 312.675 244.626 297.069C244.626 297.069 250.451 288.239 252.583 280.96C252.583 280.96 254.397 270.743 260.368 264.532Z" fill="#F7A48D"/>
<path d="M277.942 313.802C277.638 313.629 277.35 313.905 277.104 314.009C277.397 313.269 276.949 311.873 275.955 312.13L275.844 312.167C276.07 311.69 275.664 311.116 275.107 311.28C274.665 311.411 274.404 311.848 274.173 312.203C273.904 312.614 273.581 313.075 273.729 313.572C273.873 314.051 274.306 314.432 274.804 314.39C274.827 314.823 274.833 315.148 275.188 315.446C275.446 315.662 275.765 315.779 276.023 315.497C275.748 316.012 275.752 316.803 276.205 317.199C276.763 317.688 277.092 317.218 277.425 316.777C277.73 316.369 278.042 315.961 278.181 315.455C278.296 315.036 278.433 314.078 277.942 313.802Z" fill="#F48B76"/>
<path d="M279.989 313.028L278.945 317.195C278.945 317.195 277.388 315.732 278.292 313.476C278.292 313.476 278.415 311.473 278.06 311.613C278.21 311.064 278.152 312.665 278.618 312.376C278.898 312.208 279.317 311.928 279.653 311.883H279.663L279.989 313.028Z" fill="#F48B76"/>
<path d="M278.44 281.357C279.398 279.813 280.163 278.391 280.782 277.11C280.799 276.982 280.808 276.855 280.827 276.727C281.077 275.055 281.063 273.262 281.078 271.561C281.088 270.389 281.236 269.239 281.334 268.083C280.968 267.687 280.606 267.306 280.248 266.949C280.252 267.246 280.257 267.542 280.257 267.839C280.257 270.452 280.529 273.42 279.497 275.857C278.759 277.601 277.698 279.707 275.584 279.835C274.552 279.897 273.365 279.895 272.603 279.145C271.714 278.267 271.37 277.007 271.557 275.794C271.919 273.442 272.299 271.108 272.413 268.708C272.513 266.617 272.936 263.253 271.415 261.665C271.263 261.507 271.101 261.374 270.938 261.242C269.654 260.964 268.469 260.922 267.39 261.033L267.564 261.08C269.528 261.596 270.876 263.417 270.276 265.434C269.654 267.525 268.421 269.627 267.121 271.423C265.641 273.466 263.716 275.609 260.998 274.922C258.532 274.301 257.961 271.819 257.653 269.652C257.58 269.14 257.565 268.639 257.573 268.138C253.813 274.048 252.583 280.96 252.583 280.96C250.451 288.239 244.626 297.069 244.626 297.069C255.545 312.675 270.393 303.859 270.393 303.859C269.008 298.206 271.791 286.369 271.791 286.369C276.176 286.154 278.44 281.357 278.44 281.357Z" fill="#5E4598"/>
<path d="M270.393 303.859C269.011 298.218 271.778 286.422 271.791 286.371C270.898 285.696 269.823 285.25 268.911 284.551C268.296 284.079 267.684 283.746 267.12 283.154C266.634 282.645 266.233 282.111 265.616 281.786C265.344 282.85 265.649 284.044 265.502 285.16C265.365 286.2 264.603 286.986 263.976 287.79C262.643 289.503 262.421 291.411 261.703 293.476C260.74 296.247 257.996 300.683 254.574 300.535C251.424 300.398 247.987 297.61 245.834 295.141C245.108 296.335 244.626 297.069 244.626 297.069C255.545 312.675 270.393 303.859 270.393 303.859Z" fill="#563F90"/>
<path d="M287.047 264.974C285.651 266.051 286.899 269.759 287.287 271.044C287.851 272.912 288.809 275.387 288.289 277.464C287.638 280.063 284.555 280.05 282.682 278.802C280.765 277.527 280.285 275.607 280.184 273.484C280.12 272.16 280.254 270.825 280.184 269.504C280.11 268.125 279.347 267.244 279.188 265.964C278.808 262.878 284.716 262.154 286.497 263.875" fill="#3D3A5F"/>
<path d="M262.288 266.64C262.288 266.64 265.708 259.471 270.399 264.119C270.399 264.119 272.798 267.357 267.726 274.959C267.726 274.959 261.114 284.338 260.261 288.18C260.261 288.18 264.847 300.556 266.873 304.073C266.873 304.073 270.259 307.913 271.232 310.259C271.232 310.259 260.888 313.562 263.769 305.978L252.902 288.256C252.902 288.256 255.249 279.435 262.288 266.64Z" fill="#F7A48D"/>
<path d="M250.606 327.524C250.606 327.524 250.65 336.056 261.028 343.535L264.052 335.038L259.465 329.219L250.606 327.524Z" fill="#F79B3D"/>
<path d="M280.278 330.91L268.401 338.703L268.28 338.777L265.287 340.736L263.759 341.742L261.027 343.531C257.923 332.494 250.604 327.526 250.604 327.526L269.855 314.903C269.855 314.903 277.183 319.87 280.278 330.91Z" fill="#FDC54F"/>
<path d="M248.199 367.009C248.199 367.009 247.858 369.854 246.909 371.004C246.909 371.004 244.809 373.753 248.909 373.753H253.359C253.359 373.753 256.16 372.361 253.01 370.381C253.01 370.381 251.255 369.167 251.307 367.009H248.199Z" fill="#F7A48D"/>
<path d="M268.067 365.065L268.393 367.783C268.393 367.783 278.918 369.937 279.39 371.419H265.444L265.834 368.241L264.659 365.065H268.067Z" fill="#F7A48D"/>
<path d="M247.111 357.16C247.36 360.075 247.711 363.335 248.199 367.009H251.307L252.652 357.16H247.111Z" fill="#F7A48D"/>
<path d="M264.659 365.065H268.067L267.846 357.16H261.773C263.208 361.886 264.659 365.065 264.659 365.065Z" fill="#F7A48D"/>
<path d="M253.239 370.541C253.149 370.711 253.027 370.863 252.838 370.987C251.774 371.676 250.049 371.335 248.928 371.026C248.258 370.84 247.764 370.391 247.531 369.839C247.361 370.288 247.156 370.703 246.909 371.004C246.909 371.004 244.809 373.753 248.909 373.753H253.359C253.359 373.753 255.992 372.434 253.239 370.541Z" fill="#00B8B9"/>
<path d="M273.118 368.888C273.087 369.138 273.114 369.345 272.859 369.542C272.588 369.753 272.244 369.726 271.904 369.711C271.165 369.681 270.47 369.551 269.719 369.551C268.361 369.551 267.018 369.553 265.674 369.551L265.444 371.419H279.39C279.137 370.623 275.983 369.633 273.118 368.888Z" fill="#00B8B9"/>
<path d="M297.795 342.851L289.059 340.427L269.062 341.462L263.759 341.742L265.287 340.736L268.28 338.777L268.401 338.703L272.382 338.377L287.559 337.128L289.517 333.79L297.795 342.851Z" fill="#FDC54F"/>
<path d="M272.382 338.377L269.062 341.462L263.759 341.742L265.287 340.736L268.28 338.777L268.401 338.703L272.382 338.377Z" fill="#F79B3D"/>
<path d="M278.44 257.88L282.152 264.357L284.24 268.586C284.24 268.586 281.815 265.029 276.684 269.096L271.744 261.446C271.744 261.446 276.47 263.038 278.44 257.88Z" fill="#F7A48D"/>
<path d="M278.44 257.88C278.44 257.88 281.882 246.126 291.218 251.143C291.218 251.143 298.396 253.569 292.22 264.787C291.753 265.636 291.861 267.525 291.225 268.464L289.613 267.364C289.613 267.364 286.741 270.811 284.901 269.438L278.516 261.212L278.44 257.88Z" fill="#F7A48D"/>
<path d="M294.719 257.084C293.162 258.529 290.076 260.46 285.555 259.062C285.555 259.062 283.96 261.354 281.117 262.557C280.734 262.725 280.315 262.865 279.887 262.976C277.705 263.565 274.955 263.415 271.748 261.446C271.748 261.446 276.465 263.041 278.441 257.876C278.441 257.876 281.882 246.13 291.223 251.147C291.223 251.147 294.83 252.368 294.719 257.084Z" fill="#384968"/>
<path d="M293.205 252.56C293.183 253.08 293.127 253.592 293.01 254.065C292.314 256.874 290.001 257.816 287.385 257.813C285.049 257.809 282.34 257.814 281.291 255.314C281.013 254.65 280.871 253.944 280.838 253.235C279.164 255.421 278.441 257.876 278.441 257.876C276.465 263.041 271.748 261.446 271.748 261.446C274.955 263.415 277.705 263.565 279.887 262.976C280.315 262.865 280.734 262.725 281.117 262.557C283.96 261.354 285.555 259.062 285.555 259.062C290.076 260.46 293.162 258.529 294.719 257.084C294.77 254.898 294.022 253.47 293.205 252.56Z" fill="#3D3A5F"/>
<path d="M283.749 258.218C283.002 259.494 283.043 260.909 283.844 261.375C284.642 261.844 285.896 261.188 286.642 259.911C287.39 258.635 287.348 257.221 286.548 256.752C285.749 256.284 284.495 256.94 283.749 258.218Z" fill="#F7A48D"/>
<path d="M324.795 332.571C327.813 322.378 317.621 315.779 313.654 308.152C313.722 312.063 312.684 315.673 313.732 319.558C314.823 323.607 316.461 326.398 316.033 330.681C315.658 334.434 314.822 339.092 316.223 342.807C317.174 345.331 318.982 347.968 320.636 350.338C321.474 348.229 323.008 346.346 323.426 343.755C323.71 341.989 323.067 339.703 323.183 337.806C323.311 335.681 324.215 334.529 324.795 332.571Z" fill="#119163"/>
<path d="M353.537 343.642C351.617 342.202 349.281 342.265 346.95 342.145C344.011 341.995 342.321 342.988 340.356 345.106C339.668 345.847 339.117 346.952 338.267 347.534C337.309 348.189 335.826 348.211 334.857 349.065C333.36 350.383 333.187 352.465 332.772 354.276C334.439 354.091 336.595 354.239 337.372 354.116C339.887 353.721 341.258 351.878 342.722 349.901C343.62 348.686 343.925 348.157 345.453 347.984C346.624 347.849 347.938 347.96 349.047 348.125C351.775 348.528 353.45 348.351 356.05 347.681C356.883 347.466 358.064 347.774 358.946 348.373C358.021 346.417 355.108 344.82 353.537 343.642Z" fill="#3DB779"/>
<path d="M345.008 329.569C343.767 331.202 342.868 332.749 342.119 334.655C341.449 336.357 340.536 338.324 338.983 339.448C337.756 340.34 336.014 340.464 334.674 341.105C331.096 342.817 329.654 347.712 330.687 351.596C332.581 350.336 333.948 348.073 335.84 346.748C338.118 345.151 339.381 342.52 341.554 340.905C343.929 339.141 346.37 338.699 347.965 335.857C349.17 333.708 349.623 331.125 349.496 328.671C349.477 328.32 349.332 327.526 349.252 326.745C349.089 326.831 348.918 326.911 348.751 327.021C347.299 327.97 346.122 328.104 345.008 329.569Z" fill="#119163"/>
<path d="M310.39 339.052C309.225 336.04 307.459 333.701 304.858 331.866C301.923 329.796 298.976 329.773 295.448 329.773C295.9 332.018 296.175 334.38 297.544 335.911C299.571 338.178 302.358 338.21 303.974 341.366C305.614 344.571 305.862 348.007 309.142 350.287C311.963 352.248 315.596 352.087 318.378 354.247C317.581 351.367 317.522 348.295 315.374 345.7C313.311 343.212 311.64 342.283 310.39 339.052Z" fill="#3DB779"/>
<path d="M311.669 347.29C313.155 348.767 314.849 349.976 316.305 351.256C317.812 352.487 318.925 353.971 319.709 355.333L319.682 355.289C320.181 356.247 320.517 357.09 320.804 357.831C321.102 358.575 321.333 359.222 321.523 359.751C321.903 360.812 322.094 361.406 322.019 361.445C321.951 361.484 321.616 360.941 321.109 359.93C320.86 359.416 320.561 358.801 320.216 358.089C319.876 357.366 319.479 356.554 319.028 355.757L319.017 355.739L319.001 355.711C318.202 354.491 317.161 353.167 315.667 351.998C314.228 350.786 312.513 349.596 310.925 348.022C310.512 347.534 310.048 347.101 309.697 346.581C309.372 346.042 309.007 345.536 308.737 344.988C308.201 343.874 307.967 342.728 307.714 341.711C307.462 340.691 307.194 339.763 306.724 339.004C306.257 338.228 305.755 337.53 305.201 336.988C304.116 335.87 303.002 335.196 302.247 334.719C301.487 334.243 301.06 333.976 301.095 333.906C301.124 333.847 301.607 333.989 302.439 334.361C303.263 334.736 304.476 335.327 305.714 336.46C306.346 337.012 306.922 337.73 307.463 338.556C308.029 339.397 308.361 340.435 308.643 341.47C308.929 342.509 309.171 343.57 309.658 344.543C309.905 345.031 310.244 345.483 310.535 345.968C310.853 346.438 311.292 346.84 311.669 347.29Z" fill="#F79B3D"/>
<path d="M321.257 338.485C319.619 345.017 320.93 351.073 321.684 355.377C322.522 359.698 322.956 362.407 322.809 362.434C322.738 362.446 322.532 361.792 322.221 360.6C321.92 359.405 321.452 357.684 320.961 355.527C320.451 353.38 319.927 350.786 319.618 347.852C319.566 347.115 319.512 346.361 319.457 345.587C319.473 344.811 319.489 344.017 319.506 343.208C319.484 342.4 319.701 341.587 319.792 340.754C319.9 339.912 320.07 339.112 320.231 338.295C320.53 336.659 320.737 335.058 320.793 333.51C320.858 331.96 320.684 330.478 320.424 329.085C319.815 326.31 318.689 323.942 317.79 321.936C316.871 319.931 316.212 318.248 315.863 317.053C315.544 315.849 315.441 315.168 315.505 315.154C315.581 315.136 315.817 315.779 316.248 316.922C316.707 318.058 317.453 319.656 318.456 321.618C319.437 323.583 320.666 325.963 321.362 328.882C321.667 330.342 321.868 331.913 321.814 333.535C321.77 335.156 321.562 336.817 321.257 338.485Z" fill="#F79B3D"/>
<path d="M323.183 337.806C323.212 337.322 323.285 336.893 323.383 336.489C323.196 336.288 323.013 336.089 322.804 335.881C321.687 334.764 321.559 333.843 321.013 332.527C319.583 335.193 318.218 338.652 319.174 341.506C319.709 343.103 320.887 344.382 321.697 345.827C321.938 346.258 322.11 346.682 322.248 347.106C322.764 346.083 323.225 345.001 323.426 343.755C323.71 341.989 323.067 339.703 323.183 337.806Z" fill="#3D3A5F"/>
<path d="M332.465 347.899C331.398 350.039 331.12 352.441 330.444 354.541C330.142 355.606 329.693 356.576 329.276 357.47C328.827 358.325 328.392 359.107 328.039 359.83C326.536 362.706 326.78 364.817 326.558 364.802C326.501 364.805 326.392 364.296 326.416 363.361C326.422 362.424 326.699 361.054 327.368 359.525C327.69 358.755 328.091 357.948 328.503 357.082C328.865 356.216 329.256 355.302 329.521 354.271C330.129 352.249 330.363 349.811 331.528 347.44C331.87 346.884 332.115 346.274 332.534 345.788C332.945 345.309 333.304 344.767 333.748 344.365C334.607 343.519 335.486 342.777 336.337 342.089C338.057 340.748 339.617 339.607 340.856 338.563C343.334 336.481 344.463 334.785 344.621 334.895C344.681 334.934 344.434 335.378 343.928 336.158C343.419 336.933 342.548 337.971 341.348 339.112C340.143 340.251 338.602 341.475 336.943 342.834C335.309 344.223 333.5 345.754 332.465 347.899Z" fill="#F79B3D"/>
<path d="M337.06 352.473C335.95 352.937 334.924 353.325 334.113 354.032C333.246 354.668 332.539 355.451 331.872 356.2C330.597 357.754 329.701 359.4 328.97 360.724C327.723 363.51 327.764 365.523 327.544 365.492C327.472 365.49 327.448 365.004 327.472 364.114C327.509 363.23 327.722 361.938 328.295 360.427C328.983 358.976 329.813 357.284 331.123 355.597C331.81 354.783 332.548 353.933 333.494 353.22C334.385 352.428 335.582 351.958 336.664 351.51C337.765 351.064 338.786 350.62 339.532 349.919C340.314 349.223 340.909 348.333 341.544 347.508C342.726 345.808 344.455 344.406 346.146 344.243C347.797 343.966 349.082 344.33 349.933 344.511C350.788 344.728 351.244 344.895 351.232 344.963C351.22 345.036 350.729 345.004 349.862 344.911C349.005 344.849 347.732 344.625 346.291 344.967C344.808 345.221 343.454 346.395 342.317 348.077C341.714 348.9 341.115 349.85 340.224 350.672C339.323 351.53 338.158 352.027 337.06 352.473Z" fill="#F79B3D"/>
<path d="M330.216 325.978C331.353 322.939 332.1 319.987 330.974 316.804C330.498 315.46 329.795 314.211 329.359 312.861C329.026 313.338 328.588 313.797 328.388 314.256C327.935 315.294 327.9 316.494 327.642 317.589C327.182 319.542 326.631 321.531 325.654 323.274C323.758 326.662 320.6 329.099 319.884 333.163C319.189 337.108 320.657 341.389 322.889 344.506C323.733 345.687 324.669 346.877 324.943 348.316C325.076 349.011 325.069 349.702 325.145 350.358C325.943 348.689 327.31 347.176 328.353 345.737C330.706 342.49 330.952 339.554 330.066 335.861C329.292 332.631 329.027 329.155 330.216 325.978Z" fill="#3DB779"/>
<path d="M325.681 340.48C326.265 343.646 325.964 346.751 325.683 349.453C325.375 352.176 325.035 354.595 324.988 356.633C324.817 360.721 325.688 363.163 325.474 363.223C325.405 363.247 325.188 362.647 324.85 361.524C324.644 360.969 324.543 360.263 324.441 359.437C324.392 359.025 324.314 358.583 324.282 358.112C324.271 357.642 324.263 357.146 324.251 356.624C324.204 354.533 324.474 352.063 324.726 349.358C324.953 346.648 325.214 343.695 324.65 340.635C324.143 337.597 323.571 334.433 324.418 331.637C324.66 330.967 324.952 330.314 325.239 329.716C325.564 329.156 325.88 328.612 326.185 328.087C326.791 327.042 327.349 326.072 327.767 325.15C328.64 323.319 328.989 321.716 329.098 320.588C329.152 319.463 329.14 318.818 329.225 318.806C329.282 318.796 329.434 319.426 329.503 320.603C329.521 321.778 329.262 323.508 328.441 325.447C328.051 326.425 327.517 327.44 326.94 328.51C326.651 329.042 326.351 329.59 326.044 330.157C325.791 330.726 325.552 331.301 325.34 331.909C324.626 334.432 325.156 337.362 325.681 340.48Z" fill="#F79B3D"/>
<path d="M353.014 372.355H297.676C299.521 369.152 301.568 366.224 304.986 364.473C307.177 363.353 309.427 363.009 311.689 362.412C314.189 361.758 315.845 360.413 318.13 359.426C323.595 357.08 327.798 361.163 333.013 361.485C335.383 361.628 337.549 360.152 340.025 360.365C342.704 360.593 345.204 362.259 347.025 364.176C349.788 367.069 350.883 369.89 353.014 372.355Z" fill="#00B1AC"/>
</svg>
