<svg width="853" height="385" viewBox="0 0 853 385" fill="none" xmlns="http://www.w3.org/2000/svg">
<path d="M426.074 0V93.8706C426.074 94.6004 426.713 95.1877 427.506 95.1877H429.492C430.286 95.1877 430.924 94.6004 430.924 93.8706V0H426.074Z" fill="#C9C9D7"/>
<path d="M428.502 162.42C435.912 162.42 441.919 156.278 441.919 148.7C441.919 141.123 435.912 134.98 428.502 134.98C421.092 134.98 415.085 141.123 415.085 148.7C415.085 156.278 421.092 162.42 428.502 162.42Z" fill="#FFFF52"/>
<path d="M437.296 87.3999H419.705C417.861 87.3999 416.365 88.9291 416.365 90.8155V108.803C416.365 110.69 417.861 112.219 419.705 112.219H437.296C439.141 112.219 440.636 110.69 440.636 108.803V90.8155C440.636 88.9291 439.141 87.3999 437.296 87.3999Z" fill="#00B59A"/>
<path d="M413.709 106.378L394.259 122.069L360.019 149.691H496.986L462.745 122.069L443.29 106.375C436.766 92.5605 419.322 93.1003 413.714 106.378H413.709Z" fill="#00A88F"/>
<path d="M409.109 167.439C409.562 166.976 409.562 166.224 409.109 165.76C408.655 165.296 407.92 165.296 407.466 165.76L401.446 171.917C400.992 172.381 400.992 173.132 401.446 173.596C401.899 174.06 402.634 174.06 403.088 173.596L409.109 167.439Z" fill="#FFFF52"/>
<path d="M448.759 167.474C448.306 167.011 447.571 167.011 447.117 167.474C446.664 167.938 446.664 168.69 447.117 169.153L453.138 175.31C453.591 175.774 454.327 175.774 454.78 175.31C455.234 174.847 455.234 174.095 454.78 173.631L448.759 167.474Z" fill="#FFFF52"/>
<path d="M429.273 173.106C429.273 172.45 428.753 171.918 428.112 171.918C427.47 171.918 426.95 172.45 426.95 173.106V181.813C426.95 182.468 427.47 183 428.112 183C428.753 183 429.273 182.468 429.273 181.813V173.106Z" fill="#FFFF52"/>
<path d="M428.502 0V149.693H360.018L394.259 122.071L413.714 106.377C414.463 104.791 415.361 103.404 416.364 102.193V90.8178C416.364 88.9256 417.854 87.402 419.704 87.402H426.075V0.00212445H428.499L428.502 0Z" fill="white" fill-opacity="0.15049"/>
<path d="M853 385H0L361.834 150H494.622L853 385Z" fill="#FFFF52" fill-opacity="0.45"/>
</svg>
