<svg width="65" height="68" viewBox="0 0 65 68" fill="none" xmlns="http://www.w3.org/2000/svg">
<path d="M49.3678 1.99998H6.18159C3.87158 1.99998 2 3.88413 2 6.20986V62.1278C2 64.4536 3.87158 66.3393 6.18159 66.3393H52.9601C55.2701 66.3393 57.1417 64.4536 57.1417 62.1278V10.8095" stroke="#506F7A" stroke-width="3" stroke-miterlimit="10" stroke-linecap="round" stroke-linejoin="round"/>
<path d="M38.8847 66.3393H58.8184C61.1268 66.3393 63 64.4536 63 62.1278V10.8095" stroke="#506F7A" stroke-width="3" stroke-miterlimit="10" stroke-linecap="round" stroke-linejoin="round"/>
<path d="M14.0513 8.95833H47.5512C49.0849 8.95833 50.3279 10.2108 50.3279 11.7555V56.6106C50.3279 58.1553 49.0849 59.4077 47.5512 59.4077H11.8246C10.2909 59.4077 9.04785 58.1553 9.04785 56.6106V14.8104" stroke="#506F7A" stroke-width="3" stroke-miterlimit="10" stroke-linecap="round" stroke-linejoin="round"/>
<path d="M14.0513 8.95831H47.5512C49.0849 8.95831 50.3279 10.2107 50.3279 11.7555V23.5334C50.3279 25.0781 49.0849 26.3305 47.5512 26.3305H11.8246C10.2909 26.3305 9.04785 25.0781 9.04785 23.5334V14.8103" stroke="#506F7A" stroke-width="3" stroke-miterlimit="10" stroke-linecap="round" stroke-linejoin="round"/>
<path d="M15.0555 36.5402V33.7493C15.0555 33.5749 15.197 33.4319 15.3714 33.4319H20.4314C20.6059 33.4319 20.7473 33.5749 20.7473 33.7493V36.7948C20.7473 36.9692 20.6059 37.1122 20.4314 37.1122H18.7296" stroke="#506F7A" stroke-width="3" stroke-miterlimit="10" stroke-linecap="round" stroke-linejoin="round"/>
<path d="M15.0555 44.5843V41.7935C15.0555 41.6175 15.197 41.4745 15.3714 41.4745H20.4314C20.6059 41.4745 20.7473 41.6175 20.7473 41.7935V44.8389C20.7473 45.0133 20.6059 45.1548 20.4314 45.1548H18.7296" stroke="#506F7A" stroke-width="3" stroke-miterlimit="10" stroke-linecap="round" stroke-linejoin="round"/>
<path d="M15.0555 52.6269V49.8361C15.0555 49.6616 15.197 49.5186 15.3714 49.5186H20.4314C20.6059 49.5186 20.7473 49.6616 20.7473 49.8361V52.8831C20.7473 53.0575 20.6059 53.2005 20.4314 53.2005H18.7296" stroke="#506F7A" stroke-width="3" stroke-miterlimit="10" stroke-linecap="round" stroke-linejoin="round"/>
<path d="M26.7674 36.5402V33.7493C26.7674 33.5749 26.9088 33.4319 27.0833 33.4319H32.1433C32.3177 33.4319 32.4591 33.5749 32.4591 33.7493V36.7948C32.4591 36.9692 32.3177 37.1122 32.1433 37.1122H30.4414" stroke="#506F7A" stroke-width="3" stroke-miterlimit="10" stroke-linecap="round" stroke-linejoin="round"/>
<path d="M26.7674 44.5843V41.7935C26.7674 41.6175 26.9088 41.4745 27.0833 41.4745H32.1433C32.3177 41.4745 32.4591 41.6175 32.4591 41.7935V44.8389C32.4591 45.0133 32.3177 45.1548 32.1433 45.1548H30.4414" stroke="#506F7A" stroke-width="3" stroke-miterlimit="10" stroke-linecap="round" stroke-linejoin="round"/>
<path d="M26.7674 52.6269V49.8361C26.7674 49.6616 26.9088 49.5186 27.0833 49.5186H32.1433C32.3177 49.5186 32.4591 49.6616 32.4591 49.8361V52.8831C32.4591 53.0575 32.3177 53.2005 32.1433 53.2005H30.4414" stroke="#506F7A" stroke-width="3" stroke-miterlimit="10" stroke-linecap="round" stroke-linejoin="round"/>
<path d="M38.4274 36.5402V33.7493C38.4274 33.5749 38.5689 33.4319 38.7433 33.4319H43.8033C43.9777 33.4319 44.1192 33.5749 44.1192 33.7493V36.7948C44.1192 36.9692 43.9777 37.1122 43.8033 37.1122H42.1014" stroke="#506F7A" stroke-width="3" stroke-miterlimit="10" stroke-linecap="round" stroke-linejoin="round"/>
<path d="M38.4274 49.9775V41.7934C38.4274 41.6174 38.5689 41.4744 38.7433 41.4744H43.8033C43.9777 41.4744 44.1192 41.6174 44.1192 41.7934V50.2321" stroke="#506F7A" stroke-width="3" stroke-miterlimit="10" stroke-linecap="round" stroke-linejoin="round"/>
<path d="M44.1192 49.8361V52.8831C44.1192 53.0575 43.9778 53.2005 43.8033 53.2005H42.1015" stroke="#506F7A" stroke-width="3" stroke-miterlimit="10" stroke-linecap="round" stroke-linejoin="round"/>
<path d="M38.4274 52.627V49.8361" stroke="#506F7A" stroke-width="3" stroke-miterlimit="10" stroke-linecap="round" stroke-linejoin="round"/>
<path d="M38.4274 20.3214H44.1192" stroke="#506F7A" stroke-width="3" stroke-miterlimit="10" stroke-linecap="round" stroke-linejoin="round"/>
</svg>
